# Blender 5.1.0
# www.blender.org
mtllib MYM16CARRYHANDLEMODIFITED.mtl
o 18326823770
v -0.310712 -0.477084 -2.073637
v 0.310713 -0.523524 -2.128407
v -0.310712 -0.523524 -2.128407
v -0.310712 -0.523524 -2.506857
v 0.310713 -0.477084 -2.073637
v 0.310713 -0.523524 -2.506857
v 0.259174 -0.355236 -2.073637
v 0.310713 -0.423730 -2.073637
v -0.259550 -0.355236 -2.073637
v -0.310712 -0.423229 -2.073637
v 0.259174 -0.351194 -2.073637
v -0.259550 -0.351194 -2.073637
v 0.259174 -0.304754 -2.128407
v -0.259550 -0.304754 -2.128407
v -0.064216 -0.304754 -2.703968
v -0.259550 -0.304754 -2.629559
v -0.236537 -0.304754 -2.662998
v 0.064217 -0.304754 -2.703968
v 0.259174 -0.304754 -2.630106
v 0.236538 -0.304754 -2.662997
v 0.310713 -0.854814 -2.128407
v 0.227844 -0.854814 0.008893
v -0.310712 -0.854814 -2.128407
v -0.310712 -0.854814 0.008893
v 0.310712 -0.854814 2.703968
v 0.227844 -0.854814 2.374897
v -0.310713 -0.854814 2.703968
v -0.310713 -0.854814 2.374897
v 0.310713 -0.854814 -2.506857
v -0.310712 -0.854814 -2.506857
v 0.064217 -0.854814 -2.703968
v 0.282572 -0.854814 -2.596107
v 0.236538 -0.854814 -2.662997
v -0.064216 -0.854814 -2.703968
v -0.282571 -0.854814 -2.596108
v -0.236537 -0.854814 -2.662998
v -0.099343 0.339592 -1.910943
v -0.124327 0.364576 -1.925262
v -0.124327 0.423366 -1.958955
v 0.123952 0.423366 -1.958955
v 0.098967 0.339592 -1.910943
v 0.123952 0.364576 -1.925262
v 0.123952 0.433089 -1.961818
v -0.124327 0.433089 -1.961818
v 0.123952 0.442523 -1.958111
v -0.124327 0.442523 -1.958111
v -0.124327 0.513917 -1.917895
v 0.123952 0.513917 -1.917895
v 0.051600 0.628318 -1.917895
v 0.073051 0.644779 -1.917895
v 0.026620 0.617971 -1.917895
v 0.089511 0.666230 -1.917895
v -0.000188 0.614442 -1.917895
v 0.138302 0.718015 -1.841838
v -0.310713 -0.502274 2.309264
v 0.227844 -0.502274 0.074523
v 0.227844 -0.502274 2.309264
v 0.227844 -0.546134 2.374897
v -0.310712 -0.502274 0.074523
v -0.310713 -0.546134 2.374897
v 0.227844 -0.854814 2.374897
v -0.310713 -0.854814 2.374897
v -0.310712 -0.546134 0.008893
v 0.227844 -0.546134 0.008893
v 0.227844 -0.854814 0.008893
v -0.310712 -0.854814 0.008893
v -0.130051 0.718015 -1.841838
v -0.089886 0.666230 -1.917895
v -0.073426 0.644779 -1.917895
v -0.051975 0.628318 -1.917895
v -0.026995 0.617971 -1.917895
v -0.259550 -0.256314 -2.456342
v 0.259174 -0.256311 -2.456342
v -0.064216 -0.256367 -2.703968
v -0.259550 -0.256367 -2.629559
v -0.236537 -0.256367 -2.662998
v -0.259550 -0.221713 -2.370403
v 0.064217 -0.256367 -2.703968
v 0.259174 -0.256367 -2.630106
v 0.236538 -0.256367 -2.662997
v 0.259174 -0.221709 -2.370403
v -0.227375 -0.138248 -2.307740
v 0.226998 -0.138244 -2.307740
v -0.096187 0.321733 -2.127656
v -0.199513 0.448796 -2.077911
v 0.095810 0.321733 -2.127657
v -0.227374 0.594697 -2.020791
v 0.199137 0.448796 -2.077912
v -0.199513 0.594697 -2.020791
v 0.226998 0.594699 -2.020791
v 0.199137 0.594699 -2.020791
v 0.227008 -0.254417 2.703968
v -0.227385 -0.254417 2.703968
v -0.259550 -0.355236 2.703968
v 0.259173 -0.355236 2.703968
v -0.310713 -0.423230 2.703968
v 0.310712 -0.423730 2.703968
v -0.310713 -0.854814 2.703968
v 0.310712 -0.854814 2.703968
v -0.236537 -0.256367 -2.662998
v -0.259550 -0.304754 -2.629559
v -0.259550 -0.256367 -2.629559
v -0.259550 -0.256314 -2.456342
v -0.236537 -0.304754 -2.662998
v -0.064216 -0.256367 -2.703968
v -0.064216 -0.304754 -2.703968
v 0.064217 -0.256367 -2.703968
v 0.064217 -0.304754 -2.703968
v 0.236538 -0.256367 -2.662997
v 0.236538 -0.304754 -2.662997
v 0.259174 -0.256367 -2.630106
v 0.259174 -0.304754 -2.630106
v 0.259174 -0.256311 -2.456342
v 0.259174 -0.304754 -2.128407
v 0.259174 -0.221709 -2.370403
v -0.259550 -0.304754 -2.128407
v -0.259550 -0.221713 -2.370403
v 0.259174 -0.154055 -2.279380
v 0.226998 -0.138244 -2.307740
v -0.259550 -0.154059 -2.279380
v -0.227375 -0.138248 -2.307740
v -0.259550 -0.085499 -2.054286
v -0.259550 -0.104193 -1.986666
v -0.259550 -0.351194 -2.073637
v -0.259550 -0.034655 -2.088911
v -0.259550 0.035112 -2.081533
v -0.259550 0.205169 -2.014581
v -0.259550 0.580786 -1.991686
v -0.259550 0.273910 -1.956916
v -0.227374 0.594697 -2.020791
v -0.259550 0.302383 -1.871829
v -0.259550 0.679430 -1.935410
v -0.259550 0.759215 -1.854830
v -0.259550 0.822359 -1.672730
v -0.124327 0.511073 -1.795494
v -0.124327 0.557087 -1.811557
v -0.124327 0.513917 -1.917895
v -0.130051 0.718015 -1.841838
v 0.138302 0.718015 -1.841838
v -0.259550 0.302383 -1.160994
v -0.259550 0.326434 -1.148691
v -0.259550 0.400720 -1.115451
v -0.259550 0.467735 -1.061009
v -0.259550 -0.254417 2.671354
v -0.227385 -0.254417 2.703968
v -0.259550 -0.204072 2.445409
v -0.259550 -0.355236 2.703968
v -0.259550 -0.264303 2.327199
v -0.259550 -0.285058 2.196163
v -0.259550 -0.285058 -0.968040
v -0.259550 -0.355236 -2.073637
v -0.259550 -0.268404 -1.072604
v -0.259550 -0.220071 -1.157510
v -0.259550 -0.144793 -1.206201
v -0.259550 -0.104193 -1.219667
v 0.259174 0.822362 -1.672730
v 0.259174 0.467735 -1.061008
v 0.259174 0.400720 -1.115450
v 0.259174 0.326433 -1.148691
v 0.259174 0.302383 -1.160994
v 0.259174 0.302383 -1.871829
v 0.259174 0.759219 -1.854830
v 0.259174 0.679434 -1.935410
v 0.226998 0.594699 -2.020791
v 0.259174 0.580790 -1.991686
v 0.259174 0.273910 -1.956916
v 0.259174 0.205169 -2.014581
v 0.259174 0.035112 -2.081533
v 0.259174 -0.034655 -2.088911
v 0.259174 -0.085499 -2.054286
v 0.259174 -0.104193 -1.986666
v 0.259174 -0.351194 -2.073637
v 0.259174 -0.355236 -2.073637
v 0.259174 -0.104193 -1.219667
v 0.259174 -0.144793 -1.206201
v 0.259174 -0.220071 -1.157510
v 0.259174 -0.268404 -1.072604
v 0.259174 -0.285058 -0.968040
v 0.259173 -0.355236 2.703968
v 0.259173 -0.285058 2.196163
v 0.259173 -0.264303 2.327199
v 0.259173 -0.204072 2.445409
v 0.259173 -0.254417 2.671354
v 0.227008 -0.254417 2.703968
v 0.199137 0.737315 -1.199393
v 0.199137 0.699199 -1.961174
v 0.199137 0.448796 -1.199393
v 0.199137 0.594699 -2.020791
v 0.199137 0.448796 -2.077912
v 0.095810 0.321733 -1.199393
v 0.095810 0.321733 -2.127657
v -0.096187 0.321733 -2.127656
v -0.096187 0.321733 -1.199393
v -0.199513 0.448796 -2.077911
v -0.199513 0.448796 -1.199393
v -0.199513 0.594697 -2.020791
v -0.199513 0.699196 -1.961174
v -0.199513 0.737315 -1.199393
v -0.210710 0.282153 -1.868534
v -0.189529 0.212622 -1.915179
v -0.189529 0.231019 -1.860206
v -0.189530 0.231019 -1.181180
v -0.210710 0.282153 -1.166716
v -0.189530 0.074655 -1.225410
v -0.259550 0.302383 -1.871829
v -0.259550 0.302383 -1.160994
v -0.189530 -0.032830 -1.237270
v -0.210710 0.256536 -1.945085
v -0.259550 0.273910 -1.956916
v -0.259550 0.205169 -2.014581
v -0.210710 0.194692 -1.996964
v -0.259550 0.035112 -2.081533
v -0.189529 0.168210 -1.952436
v -0.189529 -0.032830 -1.976983
v -0.189529 0.017978 -2.011583
v -0.210710 0.030255 -2.061704
v -0.189529 -0.019908 -2.012612
v -0.210710 -0.083964 -1.983921
v -0.210710 -0.083964 -1.224657
v -0.210710 -0.029402 -2.068012
v -0.259550 -0.034655 -2.088911
v -0.259550 -0.085499 -2.054286
v -0.259550 -0.104193 -1.986666
v -0.259550 -0.104193 -1.219667
v -0.210710 -0.067978 -2.041742
v 0.189153 0.212622 -1.915179
v 0.210333 0.282153 -1.868534
v 0.189153 0.231019 -1.860206
v 0.189153 0.231019 -1.181180
v 0.210333 0.282153 -1.166716
v 0.189153 0.074655 -1.225410
v 0.259174 0.302383 -1.871829
v 0.259174 0.302383 -1.160994
v 0.189153 -0.032830 -1.237269
v 0.210333 0.256536 -1.945085
v 0.259174 0.273910 -1.956916
v 0.259174 0.205169 -2.014581
v 0.210333 0.194692 -1.996964
v 0.259174 0.035112 -2.081533
v 0.189153 0.168210 -1.952436
v 0.189153 -0.032830 -1.976983
v 0.189153 0.017978 -2.011583
v 0.210333 0.030255 -2.061704
v 0.189153 -0.019908 -2.012612
v 0.210333 -0.083964 -1.983921
v 0.210333 -0.083964 -1.224657
v 0.259174 -0.104193 -1.986666
v 0.259174 -0.104193 -1.219667
v 0.210333 -0.067978 -2.041742
v 0.259174 -0.085499 -2.054286
v 0.210333 -0.029402 -2.068012
v 0.259174 -0.034655 -2.088911
v 0.123952 0.557087 -1.811557
v 0.123952 0.513917 -1.917895
v 0.123952 0.507206 -1.868705
v 0.123952 0.511073 -1.795494
v 0.123952 0.442523 -1.958111
v 0.123952 0.481552 -1.756714
v 0.123952 0.423366 -1.958955
v 0.123952 0.433089 -1.961818
v 0.123952 0.364576 -1.925262
v 0.123952 0.364576 -1.547747
v 0.123952 0.461997 -1.547747
v -0.124327 0.442523 -1.958111
v -0.124327 0.433089 -1.961818
v -0.124327 0.423366 -1.958955
v -0.124327 0.364576 -1.925262
v -0.124327 0.481552 -1.756714
v -0.124327 0.364576 -1.547747
v -0.124327 0.461997 -1.547747
v -0.096187 0.610252 -1.199393
v 0.095810 0.610252 -1.199393
v 0.095810 0.321733 -1.199393
v 0.199137 0.448796 -1.199393
v 0.199137 0.737315 -1.199393
v -0.096187 0.321733 -1.199393
v -0.199513 0.448796 -1.199393
v -0.199513 0.737315 -1.199393
v 0.259174 -0.268404 -1.072604
v 0.259174 -0.220071 -1.157510
v -0.259550 -0.220071 -1.157510
v -0.145860 -0.144793 -1.206201
v -0.259550 -0.144793 -1.206201
v -0.210710 -0.083964 -1.224657
v -0.259550 -0.104193 -1.219667
v -0.189530 -0.032830 -1.237270
v 0.150934 -0.144793 -1.206201
v 0.259174 -0.144793 -1.206201
v 0.189153 -0.032830 -1.237269
v -0.189530 0.074655 -1.225410
v 0.210333 -0.083964 -1.224657
v 0.259174 -0.104193 -1.219667
v 0.189153 0.074655 -1.225410
v -0.189530 0.231019 -1.181180
v 0.189153 0.231019 -1.181180
v -0.210710 0.282153 -1.166716
v 0.210333 0.282153 -1.166716
v 0.259174 0.326433 -1.148691
v 0.259174 0.302383 -1.160994
v -0.259550 0.326434 -1.148691
v -0.259550 0.302383 -1.160994
v 0.259174 0.400720 -1.115450
v -0.259550 0.400720 -1.115451
v 0.259174 0.467735 -1.061008
v -0.259550 0.467735 -1.061009
v -0.228467 0.431808 -1.791583
v 0.211890 0.399187 -1.800324
v 0.211890 0.431808 -1.791583
v -0.228467 0.399187 -1.800325
v -0.228467 0.464430 -1.800325
v 0.211890 0.464430 -1.800324
v -0.228467 0.488311 -1.824205
v 0.211890 0.488311 -1.824205
v 0.211890 0.497052 -1.856827
v -0.228467 0.497052 -1.856827
v -0.228467 0.488311 -1.889449
v 0.211890 0.488311 -1.889449
v 0.211890 0.464430 -1.913330
v -0.228467 0.464430 -1.913330
v -0.228467 0.431808 -1.922071
v 0.211890 0.431808 -1.922071
v -0.228467 0.399187 -1.913330
v 0.211890 0.399187 -1.913330
v -0.228467 0.375306 -1.889449
v 0.211890 0.375306 -1.889449
v -0.228467 0.366564 -1.856827
v 0.211890 0.366564 -1.856827
v -0.228467 0.375306 -1.824205
v 0.211890 0.375306 -1.824205
v -0.228467 0.399187 -1.800325
v 0.211890 0.399187 -1.800324
v -0.124327 0.364576 -1.547747
v -0.099343 0.339592 -1.910943
v -0.099343 0.339592 -1.547747
v -0.124327 0.364576 -1.925262
v 0.098967 0.339592 -1.910943
v 0.123952 0.364576 -1.547747
v 0.098967 0.339592 -1.547747
v 0.123952 0.364576 -1.925262
v 0.098967 0.339592 -1.910943
v 0.024791 0.339592 -1.614236
v -0.025166 0.339592 -1.614236
v 0.098967 0.339592 -1.547747
v 0.053705 0.339592 -1.547747
v -0.099343 0.339592 -1.910943
v -0.099343 0.339592 -1.547747
v -0.054080 0.339592 -1.547747
v -0.236537 -0.854814 -2.662998
v -0.064216 -0.523524 -2.703968
v -0.064216 -0.854814 -2.703968
v 0.064217 -0.523524 -2.703968
v -0.236537 -0.523524 -2.662998
v 0.064217 -0.854814 -2.703968
v -0.282571 -0.854814 -2.596108
v 0.236538 -0.523524 -2.662997
v -0.282571 -0.523524 -2.596108
v 0.236538 -0.854814 -2.662997
v -0.310712 -0.854814 -2.506857
v 0.282572 -0.523524 -2.596107
v -0.310712 -0.523524 -2.506857
v 0.282572 -0.854814 -2.596107
v -0.310712 -0.523524 -2.128407
v 0.310713 -0.523524 -2.506857
v -0.310712 -0.854814 -2.128407
v 0.310713 -0.854814 -2.506857
v -0.310712 -0.477084 -2.073637
v 0.310713 -0.854814 -2.128407
v -0.310712 -0.854814 0.008893
v 0.310713 -0.523524 -2.128407
v -0.310712 -0.546134 0.008893
v 0.310713 -0.477084 -2.073637
v -0.310712 -0.423229 -2.073637
v 0.310712 -0.854814 2.703968
v 0.310712 -0.423730 2.703968
v 0.310713 -0.423730 -2.073637
v -0.310712 -0.502274 0.074523
v -0.310713 -0.423230 2.703968
v -0.310713 -0.502274 2.309264
v -0.310713 -0.546134 2.374897
v -0.310713 -0.854814 2.703968
v -0.310713 -0.854814 2.374897
v 0.259174 -0.355236 -2.073637
v 0.310712 -0.423730 2.703968
v 0.310713 -0.423730 -2.073637
v 0.259173 -0.355236 2.703968
v -0.259550 -0.355236 2.703968
v -0.310712 -0.423229 -2.073637
v -0.310713 -0.423230 2.703968
v -0.259550 -0.355236 -2.073637
v 0.227844 -0.854814 2.374897
v 0.227844 -0.546134 2.374897
v 0.227844 -0.502274 2.309264
v 0.227844 -0.502274 0.074523
v 0.227844 -0.854814 0.008893
v 0.227844 -0.546134 0.008893
v 0.024791 0.339592 -1.614236
v 0.053705 0.461997 -1.547747
v 0.024791 0.468566 -1.614236
v 0.053705 0.339592 -1.547747
v -0.054080 0.461997 -1.547747
v -0.025166 0.339592 -1.614236
v -0.025166 0.468566 -1.614236
v -0.054080 0.339592 -1.547747
v 0.123952 0.557087 -1.811557
v -0.124327 0.557087 -1.811557
v 0.123952 0.511073 -1.795494
v -0.124327 0.511073 -1.795494
v 0.123952 0.481552 -1.756714
v -0.124327 0.481552 -1.756714
v -0.025166 0.468566 -1.614236
v -0.124327 0.461997 -1.547747
v -0.054080 0.461997 -1.547747
v 0.024791 0.468566 -1.614236
v 0.123952 0.461997 -1.547747
v 0.053705 0.461997 -1.547747
v -0.124327 0.364576 -1.547747
v -0.054080 0.339592 -1.547747
v -0.054080 0.461997 -1.547747
v -0.099343 0.339592 -1.547747
v -0.124327 0.461997 -1.547747
v 0.123952 0.364576 -1.547747
v 0.053705 0.461997 -1.547747
v 0.053705 0.339592 -1.547747
v 0.123952 0.461997 -1.547747
v 0.098967 0.339592 -1.547747
v 0.024791 0.339592 -1.614236
v -0.025166 0.468566 -1.614236
v -0.025166 0.339592 -1.614236
v 0.024791 0.468566 -1.614236
v 0.064217 -0.523524 -2.703968
v 0.282572 -0.523524 -2.596107
v 0.236538 -0.523524 -2.662997
v -0.064216 -0.523524 -2.703968
v -0.282571 -0.523524 -2.596108
v -0.236537 -0.523524 -2.662998
v -0.259550 -0.285058 2.196163
v 0.259173 -0.264303 2.327199
v 0.259173 -0.285058 2.196163
v -0.259550 -0.264303 2.327199
v -0.259550 -0.285058 -0.968040
v 0.259173 -0.204072 2.445409
v 0.259174 -0.285058 -0.968040
v -0.259550 -0.204072 2.445409
v -0.259550 -0.268404 -1.072604
vn -0.0000 0.3134 -0.9496
vn 0.0002 0.9969 -0.0781
vn -0.0000 0.9969 -0.0781
vn -0.0000 1.0000 -0.0000
vn -0.0000 -0.0000 -1.0000
vn -0.0000 -0.2775 -0.9607
vn -0.0000 -0.9971 -0.0759
vn 0.0001 -0.9971 -0.0759
vn -0.0000 -1.0000 -0.0000
vn -0.0000 -0.4972 -0.8676
vn -0.0000 -0.4774 -0.8787
vn -0.0000 0.0440 -0.9990
vn -0.0000 0.4774 -0.8787
vn -0.1107 0.1904 -0.9754
vn 0.1095 0.1871 -0.9762
vn 0.5830 0.1318 -0.8017
vn 0.7706 0.1743 -0.6130
vn -0.0001 -0.9998 -0.0192
vn 0.0001 -0.9998 0.0192
vn -0.0000 -0.9998 -0.0192
vn 0.0002 -0.1832 -0.9831
vn -0.0000 -0.9998 0.0192
vn -0.0000 -0.1832 -0.9831
vn -0.0001 -0.1832 0.9831
vn -0.0000 -0.1832 0.9831
vn -0.0000 -0.0000 1.0000
vn -0.8121 0.1836 -0.5539
vn -0.6268 0.1417 -0.7662
vn -0.0000 0.9940 -0.1095
vn -0.0000 0.9940 -0.1094
vn -0.0000 1.0000 -0.0002
vn -0.0001 1.0000 -0.0002
vn -0.0000 0.7885 -0.6151
vn 0.0001 1.0000 -0.0002
vn -0.0000 0.7885 -0.6150
vn -0.0813 0.4039 -0.9112
vn 0.0812 0.4039 -0.9112
vn -0.0000 0.3646 -0.9312
vn -0.1007 0.3660 -0.9252
vn -0.0000 0.3663 -0.9305
vn 0.1006 0.3660 -0.9252
vn -0.0001 0.3662 -0.9305
vn 0.0305 0.0009 0.9995
vn -0.0306 0.0009 0.9995
vn -0.3562 -0.0000 -0.9344
vn -1.0000 -0.0000 -0.0009
vn -1.0000 -0.0001 -0.0009
vn -1.0000 -0.0000 -0.0000
vn -0.3562 0.0002 -0.9344
vn -0.1350 -0.0000 -0.9909
vn 0.1350 -0.0000 -0.9909
vn 0.3545 -0.0000 -0.9351
vn 1.0000 0.0001 -0.0009
vn 1.0000 -0.0000 -0.0009
vn 1.0000 -0.0000 -0.0000
vn 1.0000 0.0009 -0.0007
vn -1.0000 0.0009 -0.0007
vn 0.9999 0.0065 -0.0150
vn 0.0812 0.4038 -0.9113
vn -0.9999 0.0066 -0.0149
vn -0.0812 0.4038 -0.9112
vn -0.9998 0.0066 -0.0163
vn -1.0000 0.0028 -0.0036
vn -1.0000 0.0035 -0.0027
vn -0.9972 0.0742 0.0034
vn -0.9998 -0.0178 0.0072
vn -1.0000 -0.0083 0.0034
vn -0.9995 -0.0277 0.0162
vn -1.0000 0.0004 0.0012
vn -0.0304 0.0009 0.9995
vn -0.9999 0.0004 0.0114
vn 0.9972 0.0741 0.0033
vn 1.0000 0.0035 -0.0026
vn 1.0000 0.0028 -0.0037
vn 0.9998 0.0067 -0.0162
vn 0.1006 0.3660 -0.9251
vn 1.0000 0.0004 0.0012
vn 0.9999 0.0004 0.0113
vn 0.0304 0.0008 0.9995
vn -0.9635 0.2677 0.0001
vn -0.9277 0.3734 0.0001
vn -0.9635 0.2678 -0.0000
vn -0.3893 0.9211 -0.0000
vn 0.3893 0.9211 -0.0000
vn 0.9635 0.2678 -0.0000
vn 0.9635 0.2677 -0.0000
vn 0.9277 0.3734 -0.0000
vn -0.7095 -0.7043 0.0232
vn -0.9999 -0.0114 0.0078
vn -0.9977 -0.0671 0.0020
vn -0.9981 -0.0622 -0.0000
vn -0.7104 -0.7038 -0.0000
vn -0.3843 -0.9226 0.0319
vn -0.3827 -0.9239 -0.0000
vn -0.9978 0.0667 -0.0000
vn -0.6971 -0.5926 0.4035
vn -0.3953 -0.7592 0.5170
vn -0.3864 -0.4247 0.8187
vn -0.7023 -0.3260 0.6328
vn -0.3850 -0.2760 0.8807
vn -0.9997 -0.0107 0.0212
vn -0.9975 0.0700 0.0013
vn -0.9998 -0.0066 0.0208
vn -0.7011 -0.2141 0.6802
vn -0.9999 0.0059 0.0086
vn -0.7098 0.7042 0.0143
vn -0.7112 0.7030 -0.0000
vn -0.6663 0.1458 0.7313
vn -0.4035 0.1929 0.8944
vn -0.4035 0.7615 0.5072
vn -0.3835 0.9233 0.0195
vn -0.3827 0.9239 -0.0000
vn -0.6663 0.6271 0.4036
vn 0.9999 -0.0114 0.0078
vn 0.7095 -0.7043 0.0233
vn 0.9977 -0.0671 0.0020
vn 0.9981 -0.0622 -0.0000
vn 0.7105 -0.7037 -0.0000
vn 0.3843 -0.9227 0.0319
vn 0.3827 -0.9239 -0.0000
vn 0.9978 0.0667 -0.0000
vn 0.6972 -0.5926 0.4035
vn 0.3953 -0.7592 0.5170
vn 0.3864 -0.4247 0.8187
vn 0.7023 -0.3260 0.6328
vn 0.3850 -0.2760 0.8807
vn 0.9997 -0.0121 0.0204
vn 0.9975 0.0700 0.0013
vn 0.9998 -0.0066 0.0208
vn 0.7011 -0.2141 0.6802
vn 0.9999 0.0058 0.0086
vn 0.7098 0.7042 0.0143
vn 0.7112 0.7030 -0.0000
vn 0.3835 0.9233 0.0195
vn 0.3827 0.9239 -0.0000
vn 0.6663 0.6270 0.4036
vn 0.4035 0.7615 0.5072
vn 0.6663 0.1458 0.7313
vn 0.4035 0.1929 0.8944
vn 0.9997 -0.0208 0.0084
vn 0.9969 -0.0657 0.0425
vn 0.9989 -0.0444 0.0180
vn 0.9871 -0.1600 -0.0000
vn 0.9871 -0.1600 0.0001
vn -0.9934 -0.1146 -0.0000
vn -0.0000 0.9459 0.3244
vn -0.0000 0.7340 0.6792
vn -0.0004 0.4077 0.9131
vn -0.0007 0.5220 0.8529
vn -0.0007 0.2689 0.9632
vn -0.0075 0.2959 0.9552
vn -0.0000 0.0862 0.9963
vn 0.0004 0.4079 0.9130
vn 0.0007 0.5228 0.8525
vn -0.0000 -0.2458 0.9693
vn 0.0007 0.2688 0.9632
vn 0.0078 0.2961 0.9551
vn -0.0000 -0.2969 0.9549
vn -0.0000 -0.3291 0.9443
vn 0.0001 -0.2971 0.9549
vn -0.0001 -0.2970 0.9549
vn -0.0000 -0.5274 0.8496
vn -0.0000 -0.5273 0.8497
vn -0.0000 -0.7200 0.6940
vn -0.0000 -0.7200 0.6939
vn -0.0000 -0.4998 0.8661
vn -0.0000 0.5000 0.8660
vn -0.0000 0.8660 0.5000
vn -0.0000 0.8660 -0.5000
vn -0.0000 0.5000 -0.8660
vn -0.0000 -0.5000 -0.8660
vn -0.0000 -0.8660 -0.5000
vn -0.0000 -0.8660 0.5000
vn -0.0000 -0.5002 0.8659
vn -0.1206 -0.9927 -0.0000
vn 0.1206 -0.9927 -0.0000
vn 0.1207 -0.9927 -0.0000
vn 0.9871 -0.1599 -0.0000
vn -0.1207 -0.9927 -0.0000
vn -0.4431 -0.0000 -0.8965
vn -0.1349 -0.0000 -0.9909
vn 0.1349 -0.0000 -0.9909
vn -0.9033 -0.0000 -0.4291
vn 0.4430 0.0001 -0.8965
vn 0.4431 -0.0000 -0.8965
vn -0.9982 -0.0000 -0.0601
vn 0.9033 -0.0000 -0.4291
vn 0.9982 -0.0000 -0.0601
vn 0.9982 -0.0000 -0.0600
vn 0.7991 0.6013 -0.0000
vn -0.7991 0.6013 -0.0000
vn -0.9170 -0.0000 0.3988
vn 0.9170 -0.0000 0.3988
vn -0.0000 0.5875 0.8092
vn -0.0000 0.0877 0.9961
vn 0.0007 0.9791 0.2032
vn -0.0000 0.9791 0.2032
vn -0.0003 0.9957 0.0926
vn -0.0000 0.9957 0.0926
vn -0.0000 0.9957 0.0925
vn 0.0002 0.9957 0.0926
vn -0.0000 1.0000 -0.0063
vn -0.0000 0.9511 -0.3090
vn -0.0000 1.0000 0.0051
vn -0.0000 0.8090 -0.5878
vt 0.457696 0.014457
vt 0.453257 0.052873
vt 0.453257 0.014457
vt 0.429862 0.014457
vt 0.457696 0.052873
vt 0.429862 0.052873
vt 0.465229 0.049686
vt 0.460994 0.052873
vt 0.465229 0.017620
vt 0.461026 0.014457
vt 0.465479 0.049686
vt 0.465479 0.017620
vt 0.469918 0.049686
vt 0.469918 0.017620
vt 0.505498 0.029695
vt 0.500898 0.017620
vt 0.502965 0.019043
vt 0.505498 0.037635
vt 0.500932 0.049686
vt 0.502965 0.048287
vt 0.413496 0.103458
vt 0.453130 0.104994
vt 0.413496 0.114981
vt 0.453130 0.114981
vt 0.503107 0.103458
vt 0.497005 0.104994
vt 0.503107 0.114981
vt 0.497005 0.114981
vt 0.406478 0.103458
vt 0.406478 0.114981
vt 0.402823 0.108029
vt 0.404823 0.103980
vt 0.403582 0.104833
vt 0.402823 0.110410
vt 0.404823 0.114460
vt 0.403582 0.113606
vt 0.319027 0.892964
vt 0.314576 0.896826
vt 0.304102 0.896826
vt 0.304102 0.858451
vt 0.319027 0.862313
vt 0.314576 0.858451
vt 0.302536 0.858451
vt 0.302536 0.896826
vt 0.300969 0.858451
vt 0.300969 0.896826
vt 0.288304 0.896826
vt 0.288304 0.858451
vt 0.270621 0.869634
vt 0.268077 0.866319
vt 0.272221 0.873495
vt 0.264762 0.863774
vt 0.272766 0.877639
vt 0.256757 0.858451
vt 0.305422 0.089444
vt 0.263972 0.079455
vt 0.305422 0.079455
vt 0.306886 0.079455
vt 0.263972 0.089444
vt 0.306886 0.089444
vt 0.312612 0.079455
vt 0.312612 0.089444
vt 0.262508 0.089444
vt 0.262508 0.079455
vt 0.256783 0.079455
vt 0.256783 0.089444
vt 0.256757 0.896826
vt 0.264762 0.891503
vt 0.268077 0.888959
vt 0.270621 0.885643
vt 0.272221 0.881782
vt 0.596384 0.539745
vt 0.596383 0.496707
vt 0.616929 0.523538
vt 0.610756 0.539745
vt 0.613530 0.537836
vt 0.588698 0.539746
vt 0.616929 0.512882
vt 0.610800 0.496707
vt 0.613529 0.498585
vt 0.588697 0.496707
vt 0.580038 0.537076
vt 0.580037 0.499377
vt 0.539053 0.526193
vt 0.527732 0.534766
vt 0.539053 0.510263
vt 0.514732 0.537078
vt 0.527731 0.501690
vt 0.514732 0.534766
vt 0.514731 0.499379
vt 0.514731 0.501690
vt 0.051747 0.499394
vt 0.051747 0.537077
vt 0.043386 0.539745
vt 0.043386 0.496726
vt 0.037747 0.543988
vt 0.037706 0.492452
vt 0.001955 0.543988
vt 0.001955 0.492452
vt 0.448857 0.095079
vt 0.445422 0.099131
vt 0.445422 0.095079
vt 0.430910 0.095079
vt 0.448857 0.099131
vt 0.463846 0.095079
vt 0.463846 0.099131
vt 0.474714 0.095079
vt 0.474714 0.099131
vt 0.489702 0.095079
vt 0.489702 0.099131
vt 0.493081 0.095079
vt 0.493081 0.099131
vt 0.507598 0.095079
vt 0.534968 0.099131
vt 0.514786 0.092261
vt 0.403467 0.099131
vt 0.423701 0.092226
vt 0.522243 0.086564
vt 0.518898 0.084797
vt 0.416180 0.086486
vt 0.419519 0.084680
vt 0.397381 0.080851
vt 0.391722 0.082363
vt 0.398880 0.102883
vt 0.400269 0.076659
vt 0.399626 0.070910
vt 0.393965 0.056872
vt 0.391852 0.025764
vt 0.389126 0.051219
vt 0.395280 0.024157
vt 0.382018 0.048914
vt 0.387176 0.017632
vt 0.380501 0.011054
vt 0.365453 0.005859
vt 0.058607 0.467992
vt 0.065707 0.470681
vt 0.058423 0.487085
vt 0.089239 0.487085
vt 0.323085 0.048914
vt 0.322065 0.046924
vt 0.319310 0.040777
vt 0.314801 0.035231
vt 0.001954 0.103216
vt 0.001954 0.094690
vt 0.005469 0.094810
vt 0.023765 0.090762
vt 0.033332 0.095697
vt 0.044156 0.097391
vt 0.307033 0.097391
vt 0.398879 0.103217
vt 0.315722 0.096007
vt 0.322779 0.091990
vt 0.326830 0.085735
vt 0.327951 0.082363
vt 0.572397 0.005751
vt 0.623117 0.035130
vt 0.618610 0.040676
vt 0.615861 0.046827
vt 0.614843 0.048819
vt 0.555978 0.048819
vt 0.557335 0.011012
vt 0.550677 0.017629
vt 0.546035 0.025793
vt 0.548943 0.051162
vt 0.542599 0.024224
vt 0.544171 0.056841
vt 0.538640 0.070892
vt 0.538050 0.076642
vt 0.540969 0.080823
vt 0.546654 0.082319
vt 0.539555 0.102851
vt 0.539557 0.103182
vt 0.610440 0.082319
vt 0.611560 0.085692
vt 0.615612 0.091953
vt 0.622668 0.095973
vt 0.631353 0.097359
vt 0.936357 0.103182
vt 0.894163 0.097359
vt 0.904989 0.095679
vt 0.914557 0.090773
vt 0.932842 0.094773
vt 0.936357 0.094638
vt 0.803372 0.692174
vt 0.803372 0.710009
vt 0.756280 0.707653
vt 0.752595 0.701193
vt 0.749063 0.692174
vt 0.803372 0.682050
vt 0.745988 0.682050
vt 0.745988 0.670181
vt 0.803371 0.670181
vt 0.749063 0.660057
vt 0.803371 0.660057
vt 0.752594 0.651038
vt 0.756280 0.644578
vt 0.803371 0.642221
vt 0.224882 0.623613
vt 0.220381 0.626049
vt 0.221579 0.622874
vt 0.223368 0.580561
vt 0.226997 0.579787
vt 0.213119 0.583023
vt 0.228229 0.624518
vt 0.230356 0.579583
vt 0.206202 0.583573
vt 0.223084 0.628063
vt 0.225731 0.630051
vt 0.221123 0.633961
vt 0.219350 0.631022
vt 0.209744 0.637922
vt 0.217711 0.628118
vt 0.206014 0.629067
vt 0.208853 0.631157
vt 0.209399 0.634352
vt 0.206702 0.631126
vt 0.202734 0.629592
vt 0.202673 0.582762
vt 0.205971 0.634351
vt 0.204693 0.637485
vt 0.201266 0.634919
vt 0.199368 0.630413
vt 0.199368 0.582450
vt 0.203834 0.632894
vt 0.926396 0.884230
vt 0.930891 0.886652
vt 0.927594 0.887395
vt 0.929464 0.929757
vt 0.933099 0.930523
vt 0.919194 0.927322
vt 0.934233 0.885740
vt 0.936462 0.930720
vt 0.912262 0.926788
vt 0.929085 0.882218
vt 0.931715 0.880227
vt 0.927112 0.876360
vt 0.925360 0.879282
vt 0.915837 0.872475
vt 0.923734 0.882172
vt 0.912099 0.881238
vt 0.914924 0.879150
vt 0.915462 0.875969
vt 0.912784 0.879182
vt 0.908819 0.880722
vt 0.908727 0.927601
vt 0.905414 0.879848
vt 0.905414 0.927914
vt 0.909959 0.877468
vt 0.907421 0.875260
vt 0.912020 0.875919
vt 0.910931 0.872835
vt 0.179790 0.487085
vt 0.148923 0.487085
vt 0.172447 0.470681
vt 0.180467 0.479299
vt 0.179599 0.467968
vt 0.190820 0.492307
vt 0.184216 0.461863
vt 0.193621 0.492245
vt 0.192249 0.492763
vt 0.201571 0.486896
vt 0.201571 0.428494
vt 0.184216 0.428494
vt 0.047460 0.492437
vt 0.046019 0.492892
vt 0.044635 0.492369
vt 0.036603 0.486966
vt 0.053995 0.461874
vt 0.036603 0.428451
vt 0.053995 0.428451
vt 0.516379 0.524209
vt 0.516379 0.512339
vt 0.534215 0.512339
vt 0.526360 0.505952
vt 0.508523 0.505952
vt 0.534215 0.524209
vt 0.526360 0.530596
vt 0.508523 0.530596
vt 0.301271 0.575534
vt 0.295231 0.575534
vt 0.295231 0.543466
vt 0.289688 0.550494
vt 0.289690 0.543466
vt 0.285760 0.546484
vt 0.287045 0.543464
vt 0.282505 0.547795
vt 0.289688 0.568843
vt 0.289689 0.575535
vt 0.282505 0.571205
vt 0.275820 0.547796
vt 0.285760 0.572517
vt 0.287046 0.575536
vt 0.275821 0.571205
vt 0.265775 0.547796
vt 0.265775 0.571205
vt 0.262490 0.546486
vt 0.262490 0.572515
vt 0.259535 0.575534
vt 0.261205 0.575540
vt 0.259534 0.543467
vt 0.261204 0.543461
vt 0.254504 0.575534
vt 0.254503 0.543467
vt 0.249166 0.575534
vt 0.249165 0.543468
vt 0.350152 0.881418
vt 0.322932 0.883506
vt 0.322932 0.881418
vt 0.350152 0.883506
vt 0.350152 0.879330
vt 0.322932 0.879330
vt 0.350152 0.877243
vt 0.322932 0.877243
vt 0.322932 0.875155
vt 0.350152 0.875155
vt 0.350152 0.873067
vt 0.322932 0.873067
vt 0.322932 0.870979
vt 0.350152 0.870979
vt 0.350152 0.868892
vt 0.322932 0.868892
vt 0.350152 0.866804
vt 0.322932 0.866804
vt 0.350152 0.864716
vt 0.322932 0.864716
vt 0.350152 0.862629
vt 0.322932 0.862629
vt 0.350152 0.860541
vt 0.322932 0.860541
vt 0.350152 0.858453
vt 0.322932 0.858453
vt 0.296960 0.666455
vt 0.353210 0.671927
vt 0.296960 0.671927
vt 0.355428 0.666455
vt 0.593450 0.960954
vt 0.537359 0.966411
vt 0.537359 0.960954
vt 0.595662 0.966411
vt 0.032605 0.428450
vt 0.021141 0.474307
vt 0.013420 0.474307
vt 0.032605 0.484583
vt 0.025610 0.484583
vt 0.001956 0.428450
vt 0.001956 0.484583
vt 0.008951 0.484583
vt 0.449217 0.146088
vt 0.463882 0.118606
vt 0.463882 0.146088
vt 0.474516 0.118606
vt 0.449217 0.118606
vt 0.474516 0.146088
vt 0.442493 0.146088
vt 0.489181 0.118606
vt 0.442493 0.118606
vt 0.489181 0.146088
vt 0.434745 0.146088
vt 0.495904 0.118606
vt 0.434745 0.118606
vt 0.495904 0.146088
vt 0.403404 0.118606
vt 0.503652 0.118606
vt 0.403418 0.146088
vt 0.503652 0.146088
vt 0.398869 0.114748
vt 0.534975 0.146088
vt 0.225877 0.146088
vt 0.534998 0.118606
vt 0.225877 0.120482
vt 0.539539 0.114729
vt 0.398850 0.110281
vt 0.936357 0.146088
vt 0.936357 0.110299
vt 0.539572 0.110299
vt 0.220419 0.116843
vt 0.001954 0.110280
vt 0.034747 0.116843
vt 0.029287 0.120486
vt 0.001954 0.146115
vt 0.029287 0.146115
vt 0.421650 0.962455
vt 0.421650 0.968178
vt 0.420433 0.968992
vt 0.378997 0.968992
vt 0.377780 0.962455
vt 0.377780 0.968178
vt 0.638947 0.496951
vt 0.620047 0.508146
vt 0.619033 0.496951
vt 0.638947 0.508146
vt 0.525935 0.114664
vt 0.507011 0.103455
vt 0.526950 0.103455
vt 0.507011 0.114664
vt 0.051715 0.880841
vt 0.044180 0.880841
vt 0.044180 0.842455
vt 0.051715 0.842455
vt 0.059251 0.880841
vt 0.059251 0.842455
vt 0.081370 0.857786
vt 0.091700 0.842455
vt 0.091700 0.853316
vt 0.081370 0.865510
vt 0.091700 0.880842
vt 0.091700 0.869981
vt 0.624231 0.092304
vt 0.620371 0.081452
vt 0.639281 0.081452
vt 0.620371 0.088444
vt 0.639281 0.092304
vt 0.640977 0.330309
vt 0.630124 0.345360
vt 0.630124 0.326449
vt 0.640977 0.345360
vt 0.637117 0.326449
vt 0.547071 0.579457
vt 0.567007 0.587179
vt 0.547071 0.587179
vt 0.567007 0.579457
vt 0.417677 0.037635
vt 0.424345 0.051133
vt 0.420210 0.048287
vt 0.417677 0.029695
vt 0.424345 0.016197
vt 0.420210 0.019043
vt 0.503431 0.543471
vt 0.511633 0.575539
vt 0.503431 0.575539
vt 0.511633 0.543471
vt 0.307817 0.543466
vt 0.519834 0.575539
vt 0.307816 0.575535
vt 0.519835 0.543471
vt 0.301271 0.543466
s 1
f 1/1/1 2/2/2 3/3/3
f 4/4/4 3/3/3 2/2/2
f 1/1/1 5/5/1 2/2/2
f 2/2/2 6/6/4 4/4/4
f 5/5/1 1/1/1 7/7/5
f 8/8/5 5/5/1 7/7/5
f 1/1/1 9/9/5 7/7/5
f 1/1/1 10/10/5 9/9/5
f 9/9/5 11/11/6 7/7/5
f 9/9/5 12/12/6 11/11/6
f 12/12/6 13/13/7 11/11/6
f 12/12/6 14/14/8 13/13/7
f 14/14/8 15/15/9 13/13/7
f 14/14/8 16/16/9 15/15/9
f 16/16/9 17/17/9 15/15/9
f 15/15/9 18/18/9 13/13/7
f 19/19/9 13/13/7 18/18/9
f 18/18/9 20/20/9 19/19/9
f 21/21/9 22/22/9 23/23/9
f 22/22/9 24/24/9 23/23/9
f 21/21/9 25/25/9 22/22/9
f 25/25/9 26/26/9 22/22/9
f 25/25/9 27/27/9 26/26/9
f 27/27/9 28/28/9 26/26/9
f 29/29/9 21/21/9 23/23/9
f 29/29/9 23/23/9 30/30/9
f 30/30/9 31/31/9 29/29/9
f 32/32/9 29/29/9 31/31/9
f 31/31/9 33/33/9 32/32/9
f 34/34/9 31/31/9 30/30/9
f 30/30/9 35/35/9 34/34/9
f 35/35/9 36/36/9 34/34/9
f 37/37/10 38/38/10 39/39/11
f 39/39/11 40/40/11 37/37/10
f 37/37/10 40/40/11 41/41/10
f 40/40/11 42/42/10 41/41/10
f 43/43/12 40/40/11 39/39/11
f 43/43/12 39/39/11 44/44/12
f 45/45/13 43/43/12 44/44/12
f 45/45/13 44/44/12 46/46/13
f 47/47/14 45/45/13 46/46/13
f 47/47/14 48/48/15 45/45/13
f 49/49/5 50/50/5 48/48/15
f 49/49/5 48/48/15 51/51/5
f 50/50/5 52/52/16 48/48/15
f 51/51/5 48/48/15 53/53/5
f 48/48/15 47/47/14 53/53/5
f 54/54/17 48/48/15 52/52/16
f 55/55/18 56/56/19 57/57/20
f 55/55/18 57/57/20 58/58/21
f 55/55/18 59/59/22 56/56/19
f 55/55/18 58/58/21 60/60/23
f 60/60/23 58/58/21 61/61/5
f 60/60/23 61/61/5 62/62/5
f 63/63/24 56/56/19 59/59/22
f 63/63/24 64/64/25 56/56/19
f 63/63/24 65/65/26 64/64/25
f 63/63/24 66/66/26 65/65/26
f 47/47/14 67/67/27 68/68/28
f 47/47/14 68/68/28 69/69/5
f 47/47/14 69/69/5 70/70/5
f 70/70/5 71/71/5 47/47/14
f 71/71/5 53/53/5 47/47/14
f 72/72/29 73/73/30 74/74/31
f 75/75/32 72/72/29 74/74/31
f 74/74/31 76/76/4 75/75/32
f 77/77/33 73/73/30 72/72/29
f 78/78/31 74/74/31 73/73/30
f 73/73/30 79/79/34 78/78/31
f 79/79/34 80/80/4 78/78/31
f 77/77/33 81/81/35 73/73/30
f 82/82/36 81/81/35 77/77/33
f 82/82/36 83/83/37 81/81/35
f 83/83/37 82/82/36 84/84/38
f 82/82/36 85/85/38 84/84/38
f 84/84/38 86/86/38 83/83/37
f 82/82/36 87/87/39 85/85/38
f 86/86/38 88/88/38 83/83/37
f 87/87/39 89/89/40 85/85/38
f 90/90/41 83/83/37 88/88/38
f 91/91/42 90/90/41 88/88/38
f 92/92/43 93/93/44 94/94/26
f 95/95/26 92/92/43 94/94/26
f 94/94/26 96/96/26 95/95/26
f 95/95/26 96/96/26 97/97/26
f 96/96/26 98/98/26 97/97/26
f 98/98/26 99/99/26 97/97/26
f 100/100/45 101/101/46 102/102/47
f 103/103/48 102/102/47 101/101/46
f 100/100/45 104/104/49 101/101/46
f 105/105/50 104/104/49 100/100/45
f 105/105/50 106/106/50 104/104/49
f 107/107/51 106/106/50 105/105/50
f 107/107/51 108/108/51 106/106/50
f 108/108/51 107/107/51 109/109/52
f 108/108/51 109/109/52 110/110/52
f 110/110/52 109/109/52 111/111/53
f 110/110/52 111/111/53 112/112/54
f 112/112/54 111/111/53 113/113/55
f 114/114/55 112/112/54 113/113/55
f 114/114/55 113/113/55 115/115/56
f 103/103/48 101/101/46 116/116/48
f 117/117/57 103/103/48 116/116/48
f 114/114/55 115/115/56 118/118/58
f 115/115/56 119/119/59 118/118/58
f 120/120/60 117/117/57 116/116/48
f 117/117/57 120/120/60 121/121/61
f 120/120/60 116/116/48 122/122/48
f 116/116/48 123/123/48 122/122/48
f 116/116/48 124/124/48 123/123/48
f 122/122/48 125/125/48 120/120/60
f 125/125/48 126/126/48 120/120/60
f 127/127/48 120/120/60 126/126/48
f 128/128/62 121/121/61 120/120/60
f 128/128/62 120/120/60 127/127/48
f 127/127/48 129/129/48 128/128/62
f 128/128/62 130/130/39 121/121/61
f 129/129/48 131/131/48 128/128/62
f 132/132/63 128/128/62 131/131/48
f 133/133/64 132/132/63 131/131/48
f 134/134/65 133/133/64 131/131/48
f 135/135/48 136/136/66 137/137/67
f 138/138/68 137/137/67 136/136/66
f 131/131/48 140/139/48 134/134/65
f 140/139/48 141/140/48 134/134/65
f 142/141/48 134/134/65 141/140/48
f 143/142/48 134/134/65 142/141/48
f 147/143/69 145/144/70 144/145/71
f 147/143/69 144/145/71 146/146/48
f 147/143/69 146/146/48 148/147/48
f 147/143/69 148/147/48 149/148/48
f 147/143/69 149/148/48 150/149/48
f 151/150/48 147/143/69 150/149/48
f 151/150/48 150/149/48 152/151/48
f 151/150/48 152/151/48 153/152/48
f 151/150/48 153/152/48 154/153/48
f 151/150/48 154/153/48 123/123/48
f 154/153/48 155/154/48 123/123/48
f 124/124/48 151/150/48 123/123/48
f 156/155/72 157/156/55 158/157/55
f 156/155/72 158/157/55 159/158/55
f 159/158/55 160/159/55 156/155/72
f 161/160/55 156/155/72 160/159/55
f 162/161/73 156/155/72 161/160/55
f 163/162/74 162/161/73 161/160/55
f 165/163/75 163/162/74 161/160/55
f 161/160/55 166/164/55 165/163/75
f 119/119/59 164/165/76 165/163/75
f 166/164/55 167/166/55 165/163/75
f 119/119/59 165/163/75 118/118/58
f 118/118/58 165/163/75 167/166/55
f 118/118/58 167/166/55 168/167/55
f 118/118/58 168/167/55 169/168/55
f 118/118/58 169/168/55 170/169/55
f 114/114/55 118/118/58 170/169/55
f 171/170/55 114/114/55 170/169/55
f 172/171/55 114/114/55 171/170/55
f 173/172/55 172/171/55 171/170/55
f 171/170/55 174/173/55 175/174/55
f 175/174/55 173/172/55 171/170/55
f 176/175/55 173/172/55 175/174/55
f 177/176/55 173/172/55 176/175/55
f 178/177/55 173/172/55 177/176/55
f 179/178/77 173/172/55 178/177/55
f 180/179/55 179/178/77 178/177/55
f 180/179/55 181/180/55 179/178/77
f 181/180/55 182/181/55 179/178/77
f 183/182/78 179/178/77 182/181/55
f 179/178/77 183/182/78 184/183/79
f 187/184/80 185/185/81 186/186/48
f 187/184/80 186/186/48 188/187/48
f 188/187/48 189/188/82 187/184/80
f 190/189/83 187/184/80 189/188/82
f 190/189/83 189/188/82 191/190/83
f 192/191/84 190/189/83 191/190/83
f 192/191/84 193/192/84 190/189/83
f 194/193/85 193/192/84 192/191/84
f 194/193/85 195/194/86 193/192/84
f 195/194/86 194/193/85 196/195/55
f 195/194/86 196/195/55 197/196/55
f 197/196/55 198/197/87 195/194/86
f 199/198/88 200/199/89 201/200/90
f 199/198/88 201/200/90 202/201/91
f 199/198/88 202/201/91 203/202/92
f 204/203/48 202/201/91 201/200/90
f 205/204/93 199/198/88 203/202/92
f 205/204/93 203/202/92 206/205/94
f 207/206/95 204/203/48 201/200/90
f 208/207/96 199/198/88 205/204/93
f 199/198/88 208/207/96 200/199/89
f 208/207/96 205/204/93 209/208/97
f 208/207/96 209/208/97 210/209/98
f 208/207/96 210/209/98 211/210/99
f 200/199/89 208/207/96 211/210/99
f 211/210/99 210/209/98 212/211/100
f 201/200/90 200/199/89 213/212/101
f 200/199/89 211/210/99 213/212/101
f 214/213/102 201/200/90 213/212/101
f 214/213/102 207/206/95 201/200/90
f 213/212/101 215/214/103 214/213/102
f 216/215/104 213/212/101 211/210/99
f 216/215/104 215/214/103 213/212/101
f 211/210/99 212/211/100 216/215/104
f 215/214/103 217/216/105 214/213/102
f 217/216/105 215/214/103 216/215/104
f 207/206/95 214/213/102 218/217/106
f 217/216/105 218/217/106 214/213/102
f 207/206/95 218/217/106 219/218/107
f 220/219/108 216/215/104 212/211/100
f 217/216/105 216/215/104 220/219/108
f 220/219/108 212/211/100 221/220/109
f 222/221/110 220/219/108 221/220/109
f 219/218/107 218/217/106 223/222/111
f 219/218/107 223/222/111 224/223/112
f 217/216/105 225/224/113 218/217/106
f 220/219/108 225/224/113 217/216/105
f 223/222/111 218/217/106 225/224/113
f 222/221/110 225/224/113 220/219/108
f 223/222/111 225/224/113 222/221/110
f 226/225/114 227/226/115 228/227/116
f 227/226/115 229/228/117 228/227/116
f 227/226/115 230/229/118 229/228/117
f 228/227/116 229/228/117 231/230/55
f 230/229/118 227/226/115 232/231/119
f 230/229/118 232/231/119 233/232/120
f 231/230/55 234/233/121 228/227/116
f 235/234/122 232/231/119 227/226/115
f 226/225/114 235/234/122 227/226/115
f 235/234/122 236/235/123 232/231/119
f 235/234/122 237/236/124 236/235/123
f 235/234/122 238/237/125 237/236/124
f 226/225/114 238/237/125 235/234/122
f 238/237/125 239/238/126 237/236/124
f 240/239/127 226/225/114 228/227/116
f 226/225/114 240/239/127 238/237/125
f 240/239/127 228/227/116 241/240/128
f 234/233/121 241/240/128 228/227/116
f 242/241/129 240/239/127 241/240/128
f 240/239/127 243/242/130 238/237/125
f 240/239/127 242/241/129 243/242/130
f 238/237/125 243/242/130 239/238/126
f 244/243/131 242/241/129 241/240/128
f 243/242/130 242/241/129 244/243/131
f 245/244/132 241/240/128 234/233/121
f 244/243/131 241/240/128 245/244/132
f 245/244/132 234/233/121 246/245/133
f 246/245/133 247/246/134 245/244/132
f 246/245/133 248/247/135 247/246/134
f 249/248/136 245/244/132 247/246/134
f 244/243/131 245/244/132 249/248/136
f 249/248/136 247/246/134 250/249/137
f 243/242/130 244/243/131 251/250/138
f 244/243/131 249/248/136 251/250/138
f 251/250/138 239/238/126 243/242/130
f 251/250/138 249/248/136 250/249/137
f 251/250/138 252/251/139 239/238/126
f 251/250/138 250/249/137 252/251/139
f 254/252/140 139/253/141 253/254/142
f 253/254/142 255/255/55 254/252/140
f 253/254/142 256/256/55 255/255/55
f 257/257/55 254/252/140 255/255/55
f 256/256/55 258/258/55 255/255/55
f 255/255/55 259/259/55 257/257/55
f 259/259/55 260/260/55 257/257/55
f 261/261/143 259/259/55 255/255/55
f 258/258/55 261/261/143 255/255/55
f 262/262/144 261/261/143 258/258/55
f 258/258/55 263/263/55 262/262/144
f 264/264/48 265/265/48 266/266/48
f 266/266/48 267/267/145 264/264/48
f 137/137/67 264/264/48 267/267/145
f 267/267/145 135/135/48 137/137/67
f 267/267/145 268/268/48 135/135/48
f 267/267/145 269/269/145 268/268/48
f 269/269/145 270/270/48 268/268/48
f 271/271/5 272/272/5 273/273/5
f 274/274/5 273/273/5 272/272/5
f 272/272/5 275/275/5 274/274/5
f 273/273/5 276/276/5 271/271/5
f 276/276/5 277/277/5 271/271/5
f 277/277/5 278/278/5 271/271/5
f 279/279/146 280/280/147 281/281/147
f 281/281/147 280/280/147 282/282/148
f 282/282/148 283/283/149 281/281/147
f 284/284/150 285/285/151 283/283/149
f 284/284/150 283/283/149 282/282/148
f 286/286/152 284/284/150 282/282/148
f 287/287/153 282/282/148 280/280/147
f 280/280/147 288/288/154 287/287/153
f 289/289/152 286/286/152 282/282/148
f 282/282/148 287/287/153 289/289/152
f 290/290/155 286/286/152 289/289/152
f 288/288/154 291/291/156 287/287/153
f 287/287/153 291/291/156 289/289/152
f 288/288/154 292/292/157 291/291/156
f 290/290/155 289/289/152 293/293/155
f 294/294/158 290/290/155 293/293/155
f 294/294/158 293/293/155 295/295/158
f 296/296/158 294/294/158 295/295/158
f 296/296/158 295/295/158 297/297/158
f 296/296/158 297/297/158 298/298/159
f 297/297/158 299/299/160 298/298/159
f 298/298/159 300/300/159 296/296/158
f 300/300/159 301/301/161 296/296/158
f 300/300/159 298/298/159 302/302/162
f 300/300/159 302/302/162 303/303/163
f 303/303/163 302/302/162 304/304/164
f 303/303/163 304/304/164 305/305/165
f 306/306/26 307/307/166 308/308/26
f 306/306/26 309/309/166 307/307/166
f 310/310/167 306/306/26 308/308/26
f 310/310/167 308/308/26 311/311/167
f 312/312/168 310/310/167 311/311/167
f 312/312/168 311/311/167 313/313/168
f 314/314/4 312/312/168 313/313/168
f 314/314/4 315/315/4 312/312/168
f 316/316/169 315/315/4 314/314/4
f 316/316/169 314/314/4 317/317/169
f 318/318/170 316/316/169 317/317/169
f 318/318/170 319/319/170 316/316/169
f 320/320/5 319/319/170 318/318/170
f 320/320/5 318/318/170 321/321/5
f 322/322/171 320/320/5 321/321/5
f 322/322/171 321/321/5 323/323/171
f 324/324/172 322/322/171 323/323/171
f 324/324/172 323/323/171 325/325/172
f 326/326/9 324/324/172 325/325/172
f 326/326/9 325/325/172 327/327/9
f 328/328/173 326/326/9 327/327/9
f 328/328/173 327/327/9 329/329/173
f 330/330/174 328/328/173 329/329/173
f 330/330/174 329/329/173 331/331/174
f 332/332/145 333/333/175 334/334/175
f 332/332/145 335/335/145 333/333/175
f 336/336/176 337/337/143 338/338/177
f 336/336/176 339/339/178 337/337/143
f 340/340/176 341/341/9 342/342/9
f 340/340/176 343/343/177 341/341/9
f 343/343/177 344/344/9 341/341/9
f 345/345/179 340/340/176 342/342/9
f 346/346/179 345/345/179 342/342/9
f 342/342/9 347/347/9 346/346/179
f 348/348/180 349/349/181 350/350/50
f 350/350/50 349/349/181 351/351/51
f 348/348/180 352/352/180 349/349/181
f 350/350/50 351/351/51 353/353/182
f 352/352/180 348/348/180 354/354/183
f 355/355/184 353/353/182 351/351/51
f 352/352/180 354/354/183 356/356/183
f 355/355/184 357/357/185 353/353/182
f 356/356/183 354/354/183 358/358/186
f 357/357/185 355/355/184 359/359/187
f 356/356/183 358/358/186 360/360/186
f 357/357/185 359/359/187 361/361/187
f 362/362/48 360/360/186 358/358/186
f 361/361/187 359/359/187 363/363/188
f 362/362/48 358/358/186 364/364/48
f 361/361/187 363/363/188 365/365/189
f 366/366/48 362/362/48 364/364/48
f 367/367/55 365/365/189 363/363/188
f 364/364/48 368/368/48 366/366/48
f 367/367/55 363/363/188 369/369/55
f 368/368/48 370/370/48 366/366/48
f 367/367/55 369/369/55 371/371/55
f 372/372/48 366/366/48 370/370/48
f 373/373/55 367/367/55 371/371/55
f 374/374/55 373/373/55 371/371/55
f 371/371/55 375/375/55 374/374/55
f 376/376/48 372/372/48 370/370/48
f 377/377/48 372/372/48 376/376/48
f 376/376/48 378/378/48 377/377/48
f 378/378/48 379/379/48 377/377/48
f 380/380/48 377/377/48 379/379/48
f 381/381/48 380/380/48 379/379/48
f 382/172/190 383/374/190 384/375/190
f 382/172/190 385/178/190 383/374/190
f 386/143/191 387/372/191 388/377/191
f 386/143/191 389/150/191 387/372/191
f 390/382/48 391/383/48 392/384/48
f 392/384/48 393/385/48 390/382/48
f 390/382/48 393/385/48 394/386/48
f 393/385/48 395/387/48 394/386/48
f 396/388/192 397/389/192 398/390/192
f 396/388/192 399/391/192 397/389/192
f 400/392/193 401/393/193 402/394/193
f 400/392/193 403/395/193 401/393/193
f 406/396/194 404/397/195 405/398/195
f 406/396/194 405/398/195 407/399/194
f 408/400/196 406/396/194 407/399/194
f 408/400/196 407/399/194 409/401/197
f 408/400/196 409/401/197 410/402/198
f 409/401/197 411/403/199 410/402/198
f 411/403/199 412/404/200 410/402/198
f 408/400/196 410/402/198 413/405/201
f 414/406/200 408/400/196 413/405/201
f 415/407/199 414/406/200 413/405/201
f 416/408/26 417/409/26 418/410/26
f 416/408/26 419/411/26 417/409/26
f 418/410/26 420/412/26 416/408/26
f 421/413/26 422/414/26 423/415/26
f 421/413/26 424/416/26 422/414/26
f 423/415/26 425/417/26 421/413/26
f 426/418/26 427/419/26 428/420/26
f 426/418/26 429/421/26 427/419/26
f 4/4/4 6/6/4 430/422/4
f 6/6/4 431/423/4 430/422/4
f 431/423/4 432/424/4 430/422/4
f 430/422/4 433/425/4 4/4/4
f 4/4/4 433/425/4 434/426/4
f 433/425/4 435/427/4 434/426/4
f 436/428/202 437/429/203 438/430/202
f 436/428/202 439/431/203 437/429/203
f 438/430/202 440/432/204 436/428/202
f 439/431/203 441/433/205 437/429/203
f 438/430/202 442/434/204 440/432/204
f 439/431/203 443/435/205 441/433/205
f 442/434/204 444/436/146 440/432/204
f 442/434/204 279/279/146 444/436/146
f 279/279/146 281/281/147 444/436/146
