# Blender 5.2.1 LTS
# www.blender.org
o RenderMesh_13030913085_498225f804f28c3a
v -7.674455 9.962907 198.434250
v 3.684951 -4.171972 198.434250
v 4.788204 9.962907 198.434250
v -1.443125 9.994298 198.434250
v -4.581544 10.642188 198.434250
v 1.695293 10.642188 198.434250
v -7.242168 12.487228 198.434250
v 4.355918 12.487228 198.434250
v -9.236895 12.696771 198.434250
v 6.350646 12.696771 198.434250
v -7.377069 12.696771 198.434250
v 4.490820 12.696771 198.434250
v -9.019941 15.248542 198.434250
v 6.133691 15.248542 198.434250
v -10.954762 15.400401 198.434250
v 8.068511 15.400401 198.434250
v -9.049047 15.400401 198.434250
v 6.162800 15.400401 198.434250
v -9.578147 18.161024 198.434250
v 6.691897 18.161024 198.434250
v -11.491818 18.161024 198.434250
v 8.605568 18.161024 198.434250
v -9.644212 18.505724 198.434250
v 6.757960 18.505724 198.434250
v -11.444485 20.952169 198.434250
v 8.558235 20.952169 198.434250
v -9.175327 20.952169 198.434250
v 6.289076 20.952169 198.434250
v -9.019941 21.762896 198.434250
v 6.133691 21.762896 198.434250
v -2.082501 18.901320 192.776169
v -2.082501 9.372423 192.776169
v -0.803750 9.372423 192.776169
v -0.803750 18.901320 192.776169
v -6.571203 -4.171972 198.434250
v 4.166164 -19.597366 198.434250
v -7.052414 -19.597366 198.434250
v 1.447126 9.845164 -188.299042
v -0.326847 -10.828329 -189.153351
v -0.326847 9.845164 -189.153351
v 1.447126 -10.828329 -188.299042
v -2.295809 -10.828329 -189.153351
v -2.295809 9.845164 -189.153351
v -4.069782 -10.828329 -188.299042
v -4.069782 9.845164 -188.299042
v -2.211789 12.427898 -188.785248
v -3.888415 12.427897 -187.977814
v -3.245490 12.784252 -188.287445
v -2.211789 12.784252 -188.785248
v -0.410867 12.784252 -188.785248
v -0.410867 12.427898 -188.785248
v 0.622834 12.784252 -188.287445
v 1.265759 12.427897 -187.977814
v -3.384200 11.592418 -187.363892
v -2.035611 11.592419 -188.013351
v -3.384200 9.845164 -187.363892
v -2.035611 9.845164 -188.013336
v -0.587045 11.592419 -188.013351
v -0.587045 9.845164 -188.013336
v 0.761544 11.592418 -187.363892
v 0.761544 9.845164 -187.363892
v 5.404023 -6.028272 -186.532257
v -8.026679 -8.867108 -186.532257
v -8.026679 -6.028272 -186.532257
v 5.404023 -8.867108 -186.532257
v -3.061328 17.281843 -186.011108
v -3.245490 12.305065 -186.011108
v -2.928117 16.612143 -186.011108
v -2.548765 16.044401 -186.011108
v -1.981024 15.665051 -186.011108
v -1.311328 15.531840 -186.011108
v 0.622834 12.305065 -186.011108
v -0.641632 15.665051 -186.011108
v -0.073891 16.044401 -186.011108
v 0.305461 16.612143 -186.011108
v 0.438672 17.281843 -186.011108
v -12.654428 -14.441091 -192.158600
v -7.472728 -14.441091 -192.158600
v -7.472728 -14.456365 -192.158600
v -12.654428 -5.531552 -192.158600
v -12.654428 -14.456365 -192.158600
v -7.472728 -14.479383 -192.158600
v -12.654428 -14.479383 -192.158600
v -7.472728 -5.531552 -192.158600
v -12.654428 -2.231220 -190.613739
v -7.472728 -2.231220 -190.613739
v -12.654428 0.086033 -188.788055
v -7.472728 0.086033 -188.788055
v 4.850072 -14.441091 -192.158600
v 10.031772 -14.441091 -192.158600
v 10.031772 -14.456365 -192.158600
v 4.850072 -5.531552 -192.158600
v 4.850072 -14.456365 -192.158600
v 10.031772 -14.479383 -192.158600
v 4.850072 -14.479383 -192.158600
v 10.031772 -5.531552 -192.158600
v 4.850072 -2.231220 -190.613739
v 10.031772 -2.231220 -190.613739
v 4.850072 0.086033 -188.788055
v 10.031772 0.086033 -188.788055
v 4.850072 -2.161754 -179.460846
v -7.472728 -14.479380 -179.460846
v -7.472728 -2.161754 -179.460846
v 4.850072 -14.479380 -179.460846
v 7.953011 -18.676271 -177.577515
v 10.669654 -18.676271 -177.577515
v 10.669654 -19.001947 -177.577515
v 7.670329 -19.001947 -177.577515
v 9.558475 -16.826647 -177.577515
v 10.669654 -4.829195 -177.577515
v 9.149769 -16.485071 -177.577515
v 6.422540 -14.129457 -177.577515
v 6.013833 -13.787881 -177.577515
v 1.416421 -4.829195 -177.577515
v 5.484270 -13.787881 -177.577515
v 1.416421 -13.787881 -177.577515
v 0.091231 -13.787881 -177.577515
v 0.091231 -4.829195 -177.577515
v -8.481169 -13.787881 -177.577515
v -13.292310 -4.829195 -177.577515
v -9.010731 -13.787881 -177.577515
v -9.419438 -14.129457 -177.577515
v -12.146667 -16.485071 -177.577515
v -12.555375 -16.826647 -177.577515
v -13.292310 -18.676271 -177.577515
v -10.949909 -18.676271 -177.577515
v -13.292310 -19.001947 -177.577515
v -10.667229 -19.001947 -177.577515
v 13.292310 -4.862374 -170.800537
v 10.872275 -20.991480 -170.800537
v 10.872275 -4.862374 -170.800537
v 13.292310 -20.991480 -170.800537
v 10.872275 -2.845620 -170.800537
v 13.292310 -2.845620 -170.800537
v 6.896157 -4.862374 -170.800537
v 6.896157 -2.845620 -170.800537
v -4.069782 9.845164 -188.299042
v -4.069782 -10.828329 -188.299042
v -5.516477 -10.828329 -186.759644
v -5.516477 9.845164 -186.759644
v 2.893821 9.845164 -186.759644
v 1.447126 -10.828329 -188.299042
v 1.447126 9.845164 -188.299042
v 2.893821 -10.828329 -186.759644
v -3.384200 9.845164 -187.363892
v -4.376477 9.845164 -186.308044
v -4.376477 11.592418 -186.308044
v 0.761544 9.845164 -187.363892
v 1.753821 11.592418 -186.308044
v 1.753821 9.845164 -186.308044
v -5.122058 12.427897 -186.665131
v 2.499402 12.427897 -186.665131
v 2.499402 12.427898 -184.840057
v 2.499402 12.427900 -183.014999
v 13.292310 -20.991480 -170.800537
v 13.292310 -20.991474 -161.699127
v 10.872275 -20.991480 -170.800537
v 10.872275 -20.991474 -161.699127
v -10.667229 -19.001947 -171.217377
v -10.667229 -19.001942 -160.964966
v -13.292310 -19.001947 -171.217377
v -13.292310 -19.001942 -160.964966
v -13.292310 -19.001947 -177.577515
v -10.667229 -19.001947 -177.577515
v 10.669654 -19.001947 -171.217377
v 10.669654 -19.001942 -160.964966
v 7.670329 -19.001947 -171.217377
v 7.670329 -19.001942 -160.964966
v 7.670329 -19.001947 -177.577515
v 10.669654 -19.001947 -177.577515
v 0.091231 -13.787881 -177.577515
v -8.481169 -13.787879 -160.964966
v -8.481169 -13.787881 -177.577515
v -9.010731 -13.787879 -160.964966
v 0.091231 -13.787879 -160.964966
v -9.010731 -13.787881 -177.577515
v 1.416421 -13.787881 -177.577515
v -9.419438 -14.129455 -160.964966
v 5.484270 -13.787879 -160.964966
v -9.419438 -14.129457 -177.577515
v 5.484270 -13.787881 -177.577515
v -12.146667 -16.485065 -160.964966
v 6.013833 -13.787881 -177.577515
v -12.146667 -16.485071 -177.577515
v -12.555375 -16.826641 -160.964966
v -12.555375 -16.826647 -177.577515
v 6.013833 -13.787879 -160.964966
v 6.422540 -14.129457 -177.577515
v 6.422540 -14.129455 -160.964966
v 9.149769 -16.485071 -177.577515
v 9.149769 -16.485065 -160.964966
v 9.558475 -16.826647 -177.577515
v 9.558475 -16.826641 -160.964966
v -12.654428 -14.479380 -182.011017
v -7.472728 -14.479380 -182.011017
v -7.472728 -14.479380 -180.107635
v -12.654428 -14.479383 -184.117615
v -12.654428 -14.479380 -180.107635
v -7.472728 -14.479383 -184.117615
v -7.472728 -14.479380 -179.460846
v -12.654428 -14.479383 -186.657623
v -12.654428 -14.479380 -177.498260
v -7.472728 -14.479383 -186.657623
v 10.031772 -14.479380 -177.498260
v -12.654428 -14.479383 -188.788055
v 4.850072 -14.479380 -179.460846
v -7.472728 -14.479383 -188.788055
v 10.031772 -14.479380 -180.107635
v -12.654428 -14.479383 -190.613739
v 4.850072 -14.479380 -180.107635
v -7.472728 -14.479383 -190.613739
v -12.654428 -14.479383 -192.158600
v -7.472728 -14.479383 -192.158600
v 4.850072 -14.479380 -182.011017
v 10.031772 -14.479380 -182.011017
v 4.850072 -14.479383 -184.117615
v 10.031772 -14.479383 -184.117615
v 4.850072 -14.479383 -186.657623
v 10.031772 -14.479383 -186.657623
v 4.850072 -14.479383 -188.788055
v 10.031772 -14.479383 -188.788055
v 4.850072 -14.479383 -190.613739
v 10.031772 -14.479383 -190.613739
v 4.850072 -14.479383 -192.158600
v 10.031772 -14.479383 -192.158600
v -0.803750 18.901320 192.776169
v -0.803750 18.901314 179.795563
v -2.082501 18.901314 179.795563
v -2.082501 18.901320 192.776169
v 13.292310 -4.862372 -161.699127
v 13.292310 -20.991480 -170.800537
v 13.292310 -4.862374 -170.800537
v 13.292310 -20.991474 -161.699127
v 13.292311 -2.845617 -161.699127
v 13.292310 -2.845620 -170.800537
v 1.447126 -10.828329 -188.299042
v -4.069782 -10.828325 -181.381073
v -4.069782 -10.828329 -188.299042
v -0.326847 -10.828329 -189.153351
v -2.295809 -10.828329 -189.153351
v 2.893821 -10.828329 -184.840057
v 2.893821 -10.828329 -186.759644
v 2.893821 -10.828325 -182.920471
v 1.447126 -10.828325 -181.381073
v -0.326847 -10.828325 -180.526764
v -2.295809 -10.828325 -180.526764
v -5.516477 -10.828329 -184.840057
v -5.516477 -10.828329 -186.759644
v -5.516477 -10.828325 -182.920471
v -1.311328 15.531840 -183.728210
v -1.981024 15.665051 -183.728210
v -0.641632 15.665051 -183.728210
v -13.292310 -19.001947 -177.577515
v -13.292310 -19.001947 -171.217377
v -13.292310 -18.676271 -177.577515
v -13.292310 -18.754650 -160.964966
v -13.292310 -19.001942 -160.964966
v -13.292310 -18.676271 -171.217377
v -13.292310 -8.240264 -160.964966
v -13.292310 -4.829194 -171.217377
v -13.292310 -4.829195 -177.577515
v 10.669654 -18.676271 -171.217377
v 10.669654 -18.676266 -160.964966
v 10.669654 -19.001947 -171.217377
v 10.669654 -19.001942 -160.964966
v 10.669654 -4.829191 -160.964966
v 10.669654 -19.001947 -177.577515
v 10.669654 -4.829194 -171.217377
v 10.669654 -18.676271 -177.577515
v 10.669654 -4.829195 -177.577515
v -12.654428 -14.447695 -180.107635
v -12.654428 -14.447695 -177.498260
v -12.654428 -14.426668 -180.107635
v -12.654428 -14.479380 -177.498260
v -12.654428 -14.479380 -180.107635
v -12.654428 -14.426668 -177.498260
v -12.654428 -14.479380 -182.011017
v -12.654428 -2.161754 -180.107635
v -12.654428 -2.161752 -177.498260
v -12.654428 -14.441545 -182.011017
v -12.654428 -14.416452 -182.011017
v -12.654428 0.226185 -182.011017
v -12.654428 -14.479383 -184.117615
v -12.654428 -14.412244 -184.117615
v -12.654428 1.209545 -184.117615
v -12.654428 1.209545 -186.657623
v -12.654428 -14.439023 -184.117615
v -12.654428 -14.412244 -186.657623
v -12.654428 0.086033 -188.788055
v -12.654428 -14.439023 -186.657623
v -12.654428 -14.479383 -186.657623
v -12.654428 -14.417058 -188.788055
v -12.654428 -2.231220 -190.613739
v -12.654428 -14.441915 -188.788055
v -12.654428 -14.479383 -188.788055
v -12.654428 -14.426969 -190.613739
v -12.654428 -5.531552 -192.158600
v -12.654428 -14.441091 -192.158600
v -12.654428 -14.447874 -190.613739
v -12.654428 -14.479383 -190.613739
v -12.654428 -14.456365 -192.158600
v -12.654428 -14.479383 -192.158600
v 5.404023 -8.867108 -186.532257
v -8.026679 -8.867108 -183.693420
v -8.026679 -8.867108 -186.532257
v 5.404023 -8.867108 -183.693420
v 10.031772 -14.426668 -180.107635
v 10.031772 -14.426668 -177.498260
v 10.031772 -14.447695 -180.107635
v 10.031772 -2.161752 -177.498260
v 10.031772 -2.161754 -180.107635
v 10.031772 -14.447695 -177.498260
v 10.031772 -14.479380 -180.107635
v 10.031772 -14.479380 -177.498260
v 10.031772 -14.479380 -182.011017
v 10.031772 -14.441545 -182.011017
v 10.031772 -14.479383 -184.117615
v 10.031772 -14.416452 -182.011017
v 10.031772 0.226185 -182.011017
v 10.031772 -14.439023 -184.117615
v 10.031772 -14.479383 -186.657623
v 10.031772 -14.412244 -184.117615
v 10.031772 1.209545 -184.117615
v 10.031772 -14.439023 -186.657623
v 10.031772 -14.412244 -186.657623
v 10.031772 1.209545 -186.657623
v 10.031772 0.086033 -188.788055
v 10.031772 -14.417058 -188.788055
v 10.031772 -2.231220 -190.613739
v 10.031772 -14.441915 -188.788055
v 10.031772 -14.479383 -188.788055
v 10.031772 -14.426969 -190.613739
v 10.031772 -5.531552 -192.158600
v 10.031772 -14.441091 -192.158600
v 10.031772 -14.447874 -190.613739
v 10.031772 -14.479383 -190.613739
v 10.031772 -14.456365 -192.158600
v 10.031772 -14.479383 -192.158600
v -7.242168 12.487222 174.391479
v -4.581544 10.642188 198.434250
v -4.581544 10.642182 174.391479
v -7.242168 12.487228 198.434250
v -1.443125 9.994298 198.434250
v -1.443125 9.994292 174.391479
v 1.695293 10.642188 198.434250
v 1.695293 10.642182 174.391479
v 4.355918 12.487228 198.434250
v 4.355918 12.487222 174.391479
v -0.410867 12.784254 -180.894867
v -3.245490 12.784254 -181.392670
v -2.211789 12.784254 -180.894867
v 0.622834 12.784254 -181.392670
v 10.872275 -4.862374 -170.800537
v 6.896157 -4.862372 -161.699127
v 10.872275 -4.862372 -161.699127
v 2.893821 9.845164 -186.759644
v 1.447126 9.845164 -188.299042
v 1.753821 9.845164 -186.308044
v 2.893821 9.845164 -184.840057
v 0.761544 9.845164 -187.363892
v 1.753821 9.845164 -184.840057
v -0.587045 9.845164 -188.013336
v 1.753821 9.845164 -183.372070
v -0.326847 9.845164 -189.153351
v 2.893821 9.845168 -182.920471
v -2.295809 9.845164 -189.153351
v 1.447126 9.845168 -181.381073
v -2.035611 9.845164 -188.013336
v 0.761544 9.845168 -182.316223
v -4.069782 9.845164 -188.299042
v -0.587045 9.845168 -181.666779
v -3.384200 9.845164 -187.363892
v -0.326847 9.845168 -180.526764
v -4.376477 9.845164 -186.308044
v -2.035611 9.845168 -181.666779
v -5.516477 9.845164 -186.759644
v -2.295809 9.845168 -180.526764
v -5.516477 9.845164 -184.840057
v -4.069782 9.845168 -181.381073
v -4.376477 9.845164 -184.840057
v -3.384200 9.845168 -182.316223
v -4.376477 9.845164 -183.372070
v -5.516477 9.845168 -182.920471
v -5.117220 12.427898 -184.840057
v -4.554956 11.592418 -184.840057
v -5.516477 9.845164 -186.759644
v -5.516477 -10.828329 -186.759644
v -5.516477 -10.828329 -184.840057
v -5.516477 9.845164 -184.840057
v -5.516477 -10.828325 -182.920471
v -5.516477 9.845168 -182.920471
v -5.122058 12.427900 -183.014984
v -3.888415 12.427900 -181.702301
v -3.245490 12.305065 -183.728210
v 2.893821 9.845164 -184.840057
v 2.893821 -10.828329 -186.759644
v 2.893821 9.845164 -186.759644
v 2.893821 -10.828329 -184.840057
v 2.893821 9.845168 -182.920471
v 2.893821 -10.828325 -182.920471
v -6.571203 -4.171972 198.434250
v -7.674455 9.962901 174.391479
v -6.571203 -4.171974 174.391479
v -7.674455 9.962907 198.434250
v -7.052414 -19.597366 198.434250
v -9.236895 12.696765 174.391479
v -7.052414 -19.597370 174.391479
v -9.236895 12.696771 198.434250
v -10.954762 15.400395 174.391479
v -10.954762 15.400401 198.434250
v -11.491818 18.161018 174.391479
v -11.491818 18.161024 198.434250
v -11.444485 20.952164 174.391479
v -11.444485 20.952169 198.434250
v -4.376477 9.845164 -186.308044
v -4.376477 9.845164 -184.840057
v -4.376477 11.592418 -184.840057
v -4.376477 9.845164 -183.372070
v -4.376477 11.592418 -183.372070
v 0.622834 12.305065 -183.728210
v 4.788204 9.962901 174.391479
v 4.788204 9.962907 198.434250
v 3.684951 -4.171974 174.391479
v 3.684951 -4.171972 198.434250
v 6.350646 12.696771 198.434250
v 4.166164 -19.597370 174.391479
v 6.350646 12.696765 174.391479
v 4.166164 -19.597366 198.434250
v 8.068511 15.400401 198.434250
v 8.068511 15.400395 174.391479
v 8.605568 18.161024 198.434250
v 8.605568 18.161018 174.391479
v 8.558235 20.952169 198.434250
v 8.558235 20.952164 174.391479
v 1.753821 9.845164 -184.840057
v 1.753821 11.592418 -184.840057
v 1.753821 11.592418 -183.372070
v 1.753821 9.845164 -183.372070
v 1.753821 9.845164 -186.308044
v -2.082501 18.901314 179.795563
v -2.082501 9.372420 179.795563
v -2.082501 9.372423 192.776169
v -2.082501 18.901320 192.776169
v 10.031772 0.086033 -188.788055
v 4.850072 0.086033 -188.788055
v 4.850072 1.209545 -186.657623
v 10.031772 1.209545 -186.657623
v 4.850072 1.209545 -184.117615
v 10.031772 1.209545 -184.117615
v 4.850072 0.226185 -182.011017
v 10.031772 0.226185 -182.011017
v -7.472728 0.086033 -188.788055
v -12.654428 0.086033 -188.788055
v -12.654428 1.209545 -186.657623
v -7.472728 1.209545 -186.657623
v -12.654428 1.209545 -184.117615
v -7.472728 1.209545 -184.117615
v -12.654428 0.226185 -182.011017
v -7.472728 0.226185 -182.011017
v -0.803750 18.901320 192.776169
v -0.803750 9.372420 179.795563
v -0.803750 18.901314 179.795563
v -0.803750 9.372423 192.776169
v 0.091231 -13.787879 -160.964966
v 5.484270 -13.787879 -160.964966
v 1.416421 -13.787879 -160.964966
v -0.073891 16.044401 -183.728210
v 0.305461 16.612143 -183.728210
v 0.438672 17.281843 -183.728210
v -3.061328 17.281843 -183.728210
v -2.928117 16.612143 -183.728210
v -2.548765 16.044401 -183.728210
v 6.133691 15.248542 198.434250
v 6.133691 15.248536 174.391479
v 4.490820 12.696765 174.391479
v 6.162800 15.400401 198.434250
v 4.490820 12.696771 198.434250
v 4.355918 12.487228 198.434250
v 4.355918 12.487222 174.391479
v 6.162800 15.400395 174.391479
v 6.691897 18.161024 198.434250
v 6.691897 18.161018 174.391479
v 6.757960 18.505724 198.434250
v 6.757960 18.505718 174.391479
v 6.289076 20.952169 198.434250
v 6.289076 20.952164 174.391479
v 6.133691 21.762890 174.391479
v 6.133691 21.762896 198.434250
v -9.049047 15.400395 174.391479
v -9.049047 15.400401 198.434250
v -9.019941 15.248542 198.434250
v -9.019941 15.248536 174.391479
v -9.578147 18.161018 174.391479
v -7.377069 12.696771 198.434250
v -9.578147 18.161024 198.434250
v -7.377069 12.696765 174.391479
v -7.242168 12.487228 198.434250
v -7.242168 12.487222 174.391479
v -9.644212 18.505724 198.434250
v -9.644212 18.505718 174.391479
v -9.175327 20.952164 174.391479
v -9.175327 20.952169 198.434250
v -9.019941 21.762896 198.434250
v -9.019941 21.762890 174.391479
v 1.416421 -4.829194 -171.217377
v 0.091231 -8.240264 -160.964966
v 1.416421 -4.829191 -160.964966
v -12.654428 -2.161752 -177.498260
v 10.031772 -2.161752 -177.498260
v 4.850072 -2.161754 -179.460846
v 10.031772 -2.161754 -180.107635
v 4.850072 -2.161754 -180.107635
v -7.472728 -2.161754 -179.460846
v -12.654428 -2.161754 -180.107635
v -7.472728 -2.161754 -180.107635
v 10.872275 -2.845620 -170.800537
v 10.872275 -2.845617 -161.699127
v 13.292310 -2.845620 -170.800537
v 6.896157 -2.845617 -161.699127
v 4.850072 -2.161754 -180.107635
v 4.850072 -14.479383 -186.657623
v 4.850072 -14.479383 -184.117615
v 4.850072 -14.479380 -182.011017
v 4.850072 -2.161754 -179.460846
v 4.850072 -14.479380 -180.107635
v 4.850072 -14.479380 -179.460846
v 4.850072 0.226185 -182.011017
v 4.850072 -14.479383 -188.788055
v 4.850072 -2.231220 -190.613739
v 4.850072 -5.531552 -192.158600
v 4.850072 0.086033 -188.788055
v 4.850072 1.209545 -184.117615
v 4.850072 1.209545 -186.657623
v 4.850072 -14.441091 -192.158600
v 4.850072 -14.479383 -190.613739
v 4.850072 -14.456365 -192.158600
v 4.850072 -14.479383 -192.158600
v -7.472728 -14.479380 -182.011017
v -7.472728 -14.479383 -184.117615
v -7.472728 0.226185 -182.011017
v -7.472728 -2.161754 -180.107635
v -7.472728 -14.479380 -180.107635
v -7.472728 -14.479380 -179.460846
v -7.472728 -2.161754 -179.460846
v -7.472728 -14.479383 -186.657623
v -7.472728 -2.231220 -190.613739
v -7.472728 -5.531552 -192.158600
v -7.472728 0.086033 -188.788055
v -7.472728 1.209545 -184.117615
v -7.472728 1.209545 -186.657623
v -7.472728 -14.441091 -192.158600
v -7.472728 -14.479383 -188.788055
v -7.472728 -14.456365 -192.158600
v -7.472728 -14.479383 -190.613739
v -7.472728 -14.479383 -192.158600
v -8.026679 -6.028271 -183.693420
v 5.404023 -6.028271 -183.693420
v -8.026679 -6.028272 -186.532257
v 5.404023 -6.028272 -186.532257
v -0.803750 9.372420 179.795563
v -2.082501 9.372423 192.776169
v -2.082501 9.372420 179.795563
v -0.803750 9.372423 192.776169
v 10.872275 -4.862374 -170.800537
v 10.872275 -20.991480 -170.800537
v 10.872275 -20.991474 -161.699127
v -13.292310 -4.829194 -171.217377
v -13.292310 -8.240264 -160.964966
v -13.292310 -4.829195 -177.577515
v 0.091231 -4.829195 -177.577515
v 1.416421 -4.829195 -177.577515
v 10.669654 -4.829194 -171.217377
v 10.669654 -4.829195 -177.577515
v 9.558475 -16.826647 -177.577515
v 7.670329 -19.001942 -160.964966
v 7.953011 -18.676266 -160.964966
v 9.558475 -16.826641 -160.964966
v 7.670329 -19.001947 -171.217377
v 7.953011 -18.676271 -177.577515
v 7.670329 -19.001947 -177.577515
v -12.555375 -16.826641 -160.964966
v -10.667229 -19.001947 -177.577515
v -10.949909 -18.676271 -177.577515
v -12.555375 -16.826647 -177.577515
v -10.667229 -19.001947 -171.217377
v -10.881874 -18.754650 -160.964966
v -10.667229 -19.001942 -160.964966
v -3.384200 11.592421 -182.316223
v 0.761544 11.592421 -182.316223
v 1.265759 12.427900 -181.702301
v -5.516477 9.845168 -182.920471
v -5.516477 -10.828325 -182.920471
v -4.069782 -10.828325 -181.381073
v -4.069782 9.845168 -181.381073
v 1.447126 9.845168 -181.381073
v 2.893821 -10.828325 -182.920471
v 2.893821 9.845168 -182.920471
v 1.447126 -10.828325 -181.381073
v -4.376477 9.845164 -183.372070
v -3.384200 9.845168 -182.316223
v 1.753821 9.845164 -183.372070
v 0.761544 9.845168 -182.316223
v -2.211789 12.427900 -180.894867
v -2.035611 11.592421 -181.666794
v -0.410867 12.427900 -180.894867
v -0.587045 11.592421 -181.666794
v -12.654428 -2.161754 -180.107635
v -7.472728 -2.161754 -180.107635
v -7.472728 0.226185 -182.011017
v -12.654428 0.226185 -182.011017
v 4.850072 -2.161754 -180.107635
v 10.031772 -2.161754 -180.107635
v 10.031772 0.226185 -182.011017
v 4.850072 0.226185 -182.011017
v 10.669654 -19.001942 -160.964966
v 7.953011 -18.676266 -160.964966
v 7.670329 -19.001942 -160.964966
v 10.669654 -18.676266 -160.964966
v 9.558475 -16.826641 -160.964966
v 9.149769 -16.485065 -160.964966
v 6.422540 -14.129455 -160.964966
v 6.013833 -13.787879 -160.964966
v 5.484270 -13.787879 -160.964966
v 1.416421 -13.787879 -160.964966
v 0.091231 -13.787879 -160.964966
v -8.481169 -13.787879 -160.964966
v -13.292310 -8.240264 -160.964966
v -9.010731 -13.787879 -160.964966
v -9.419438 -14.129455 -160.964966
v -12.146667 -16.485065 -160.964966
v -12.555375 -16.826641 -160.964966
v -13.292310 -18.754650 -160.964966
v -10.881874 -18.754650 -160.964966
v -13.292310 -19.001942 -160.964966
v -10.667229 -19.001942 -160.964966
v 10.872275 -20.991474 -161.699127
v 13.292310 -20.991474 -161.699127
v 10.031772 -14.426668 -177.498260
v -12.654428 -14.426668 -177.498260
v 10.031772 -14.447695 -177.498260
v -12.654428 -2.161752 -177.498260
v 10.031772 -2.161752 -177.498260
v -12.654428 -14.447695 -177.498260
v 10.031772 -14.479380 -177.498260
v -12.654428 -14.479380 -177.498260
v -0.326847 9.845168 -180.526764
v -0.326847 -10.828325 -180.526764
v 1.447126 -10.828325 -181.381073
v 1.447126 9.845168 -181.381073
v -2.295809 9.845168 -180.526764
v -2.295809 -10.828325 -180.526764
v -4.069782 9.845168 -181.381073
v -4.069782 -10.828325 -181.381073
v -2.035611 9.845168 -181.666779
v -3.384200 9.845168 -182.316223
v -0.587045 9.845168 -181.666779
v 0.761544 9.845168 -182.316223
v 5.404023 -6.028271 -183.693420
v -8.026679 -6.028271 -183.693420
v 5.404023 -8.867108 -183.693420
v -8.026679 -8.867108 -183.693420
v -7.674455 9.962901 174.391479
v 4.788204 9.962901 174.391479
v -6.571203 -4.171974 174.391479
v 3.684951 -4.171974 174.391479
v -7.052414 -19.597370 174.391479
v 4.166164 -19.597370 174.391479
v -7.377069 12.696765 174.391479
v -9.236895 12.696765 174.391479
v -9.019941 15.248536 174.391479
v -7.242168 12.487222 174.391479
v -10.954762 15.400395 174.391479
v -9.049047 15.400395 174.391479
v -4.581544 10.642182 174.391479
v -9.578147 18.161018 174.391479
v -1.443125 9.994292 174.391479
v -11.491818 18.161018 174.391479
v -9.644212 18.505718 174.391479
v 1.695293 10.642182 174.391479
v -11.444485 20.952164 174.391479
v 4.355918 12.487222 174.391479
v -9.175327 20.952164 174.391479
v 6.350646 12.696765 174.391479
v -9.019941 21.762890 174.391479
v 4.490820 12.696765 174.391479
v 6.133691 15.248536 174.391479
v 8.068511 15.400395 174.391479
v 6.162800 15.400395 174.391479
v 6.691897 18.161018 174.391479
v 8.605568 18.161018 174.391479
v 6.757960 18.505718 174.391479
v 8.558235 20.952164 174.391479
v 6.289076 20.952164 174.391479
v 6.133691 21.762890 174.391479
v -0.803750 18.901314 179.795563
v -2.082501 9.372420 179.795563
v -2.082501 18.901314 179.795563
v -0.803750 9.372420 179.795563
v 0.429927 17.325809 -186.011108
v -3.073356 17.325809 -183.728210
v 0.429927 17.325809 -183.728210
v -3.073356 17.325809 -186.011108
v -3.052583 17.325809 -186.011108
v 0.429928 17.325804 -185.861252
v -3.052583 17.325808 -183.878082
v -3.052583 17.325809 -183.728210
v 0.450700 17.325809 -186.011108
v 0.450700 17.325809 -183.728210
v -3.245490 17.191616 -186.011108
v -3.125217 17.311890 -186.011108
v -3.243179 17.215080 -186.011108
v -3.236335 17.237642 -186.011108
v -3.225221 17.258436 -186.011108
v -3.210263 17.276663 -186.011108
v -3.192038 17.291620 -186.011108
v -3.171244 17.302734 -186.011108
v -3.148681 17.309578 -186.011108
v -3.125217 17.311892 -185.756882
v -3.245490 17.191620 -185.708282
v -3.148681 17.309584 -185.755951
v -3.171244 17.302738 -185.753189
v -3.192038 17.291624 -185.748688
v -3.210263 17.276667 -185.742645
v -3.225221 17.258442 -185.735291
v -3.236335 17.237648 -185.726883
v -3.243179 17.215086 -185.717758
v -3.125217 17.311890 -183.728210
v -3.245490 17.191618 -183.728210
v -3.148681 17.309576 -183.728210
v -3.171244 17.302732 -183.728210
v -3.192038 17.291618 -183.728210
v -3.210263 17.276661 -183.728210
v -3.225221 17.258436 -183.728210
v -3.236335 17.237642 -183.728210
v -3.243179 17.215080 -183.728210
v 0.509392 17.311892 -183.982437
v 0.622834 17.198452 -184.028275
v 0.531524 17.309710 -183.983322
v 0.552805 17.303255 -183.985931
v 0.572417 17.292772 -183.990158
v 0.589608 17.278666 -183.995865
v 0.603716 17.261475 -184.002808
v 0.614199 17.241861 -184.010727
v 0.620654 17.220581 -184.019333
v 0.509392 17.311890 -186.011108
v 0.622834 17.198448 -186.011108
v 0.531524 17.309710 -186.011108
v 0.552805 17.303255 -186.011108
v 0.572417 17.292770 -186.011108
v 0.589608 17.278664 -186.011108
v 0.603716 17.261473 -186.011108
v 0.614199 17.241859 -186.011108
v 0.620654 17.220579 -186.011108
v 0.622834 17.198448 -183.728210
v 0.509392 17.311890 -183.728210
v 0.620654 17.220579 -183.728210
v 0.614199 17.241859 -183.728210
v 0.603716 17.261473 -183.728210
v 0.589608 17.278664 -183.728210
v 0.572417 17.292770 -183.728210
v 0.552805 17.303255 -183.728210
v 0.531524 17.309710 -183.728210
vn -0.0000 -0.0000 1.0000
vn 0.4339 -0.0000 -0.9010
vn 0.2225 -0.0000 -0.9749
vn -0.2225 -0.0000 -0.9749
vn -0.4339 -0.0000 -0.9010
vn -0.0000 -0.0000 -1.0000
vn -0.0000 0.2172 -0.9761
vn -0.0000 0.5249 -0.8512
vn -0.0000 0.6189 -0.7855
vn -0.7287 -0.0000 -0.6848
vn 0.7287 -0.0000 -0.6848
vn 0.1615 -0.6879 -0.7077
vn -0.1615 -0.6879 -0.7076
vn 0.1615 -0.6879 -0.7076
vn -0.4310 -0.6886 -0.5831
vn -0.4259 -0.6884 -0.5871
vn 0.4259 -0.6884 -0.5871
vn 0.4310 -0.6886 -0.5831
vn -0.5302 -0.6861 -0.4982
vn 0.5302 -0.6861 -0.4982
vn -0.0000 -1.0000 -0.0000
vn 0.6413 -0.7673 -0.0000
vn 0.6534 -0.7570 -0.0000
vn 0.6475 -0.7621 -0.0000
vn -0.6413 -0.7673 -0.0000
vn -0.6534 -0.7570 -0.0000
vn -0.6475 -0.7621 -0.0000
vn -0.0000 1.0000 -0.0000
vn 1.0000 -0.0000 -0.0000
vn 0.3827 0.9239 -0.0000
vn -0.3827 0.9239 -0.0000
vn -1.0000 -0.0000 -0.0000
vn 0.5699 0.8217 -0.0000
vn 0.3940 0.9191 -0.0000
vn -0.3940 0.9191 -0.0000
vn -0.5699 0.8217 -0.0000
vn -0.1835 0.9830 -0.0000
vn 0.1835 0.9830 -0.0000
vn 0.1834 0.9830 -0.0000
vn -0.7741 -0.6323 -0.0308
vn -0.7970 -0.6040 -0.0000
vn -0.7465 -0.6653 0.0020
vn -0.8296 -0.5583 -0.0000
vn -0.9997 -0.0234 -0.0000
vn -0.9558 -0.2941 -0.0000
vn -0.9995 0.0312 -0.0000
vn -0.8564 -0.5164 -0.0000
vn -0.9290 -0.3701 -0.0000
vn -0.9962 -0.0875 -0.0000
vn -0.9999 0.0170 -0.0000
vn 0.3171 0.9484 -0.0000
vn 0.9558 -0.2941 -0.0000
vn 0.9997 -0.0234 -0.0000
vn 0.8564 -0.5164 -0.0000
vn 0.9995 0.0312 -0.0000
vn 0.9290 -0.3701 -0.0000
vn 0.9962 -0.0875 -0.0000
vn 0.9999 0.0170 -0.0000
vn -0.0000 0.8845 -0.4665
vn -0.0000 0.9707 -0.2403
vn -0.0000 0.9763 0.2166
vn -0.0000 0.9061 0.4230
vn -0.7071 0.7071 -0.0000
vn -0.9239 0.3827 -0.0000
vn -0.9808 -0.1951 -0.0000
vn 0.9808 -0.1951 -0.0000
vn 0.9239 0.3827 -0.0000
vn 0.7071 0.7071 -0.0000
vn -0.9284 0.3716 -0.0000
vn -0.8408 0.5413 -0.0000
vn -0.9821 0.1882 -0.0000
vn -0.9821 -0.1882 -0.0000
vn 0.7461 -0.6658 -0.0000
vn 0.9821 0.1882 -0.0000
vn 0.9284 0.3716 -0.0000
vn 0.8408 0.5413 -0.0000
vn 0.9821 -0.1882 -0.0000
vn -0.9321 0.3621 -0.0000
vn -0.7741 -0.6323 0.0308
vn -0.7465 -0.6654 -0.0020
vn -0.0000 0.9972 0.0749
vn -0.0000 0.9871 0.1599
vn -0.0000 0.9489 0.3157
vn -0.7552 0.6555 -0.0000
vn 0.7552 0.6555 -0.0000
vn -0.4310 -0.6886 0.5831
vn -0.5302 -0.6861 0.4982
vn -0.4259 -0.6884 0.5871
vn 0.4259 -0.6884 0.5871
vn 0.5302 -0.6861 0.4982
vn 0.4310 -0.6886 0.5831
vn -0.7287 -0.0000 0.6848
vn 0.7287 -0.0000 0.6848
vn -0.1615 -0.6879 0.7076
vn 0.1615 -0.6879 0.7076
vn -0.0000 0.6233 0.7820
vn 0.2225 -0.0000 0.9749
vn 0.4339 -0.0000 0.9010
vn -0.2225 -0.0000 0.9749
vn -0.4339 -0.0000 0.9010
vn -0.3171 0.9484 -0.0000
vn -0.9988 0.0491 -0.0000
vn -0.9808 0.1951 -0.0000
vn -0.8315 0.5556 -0.0000
vn -0.5556 0.8315 -0.0000
vn -0.1951 0.9808 -0.0000
vn -0.1432 0.9897 -0.0000
vn -0.1882 0.9821 -0.0000
vn 0.9988 0.0491 -0.0000
vn 0.9808 0.1951 -0.0000
vn 0.8315 0.5556 -0.0000
vn 0.5556 0.8315 -0.0000
vn 0.1951 0.9808 -0.0000
vn 0.1354 0.9908 -0.0000
vn 0.1725 0.9850 -0.0000
vn 0.3597 0.9331 -0.0000
vn -0.3597 0.9331 -0.0000
vt 0.372529 0.100099
vt 0.388238 0.081264
vt 0.389764 0.100099
vt 0.381146 0.100140
vt 0.376806 0.101004
vt 0.385487 0.101004
vt 0.373127 0.103462
vt 0.389166 0.103462
vt 0.370369 0.103741
vt 0.391924 0.103741
vt 0.372941 0.103741
vt 0.389353 0.103741
vt 0.370669 0.107141
vt 0.391624 0.107141
vt 0.367993 0.107344
vt 0.394300 0.107344
vt 0.370628 0.107344
vt 0.391665 0.107344
vt 0.369897 0.111022
vt 0.392396 0.111022
vt 0.367250 0.111022
vt 0.395043 0.111022
vt 0.369805 0.111482
vt 0.392488 0.111482
vt 0.367316 0.114741
vt 0.394977 0.114741
vt 0.370454 0.114741
vt 0.391839 0.114741
vt 0.370669 0.115822
vt 0.391624 0.115822
vt 0.231633 0.079565
vt 0.237594 0.079565
vt 0.237594 0.080395
vt 0.231633 0.080395
vt 0.374055 0.081264
vt 0.388903 0.060711
vt 0.373389 0.060711
vt 0.024489 0.247759
vt 0.030363 0.179298
vt 0.030363 0.247759
vt 0.024489 0.179298
vt 0.036884 0.179298
vt 0.036884 0.247759
vt 0.042758 0.179298
vt 0.042758 0.247759
vt 0.036606 0.256311
vt 0.042158 0.256311
vt 0.040029 0.257491
vt 0.036606 0.257491
vt 0.030642 0.257491
vt 0.030642 0.256311
vt 0.027219 0.257491
vt 0.025090 0.256311
vt 0.040488 0.253545
vt 0.036022 0.253545
vt 0.040488 0.247759
vt 0.036022 0.247759
vt 0.031225 0.253545
vt 0.031225 0.247759
vt 0.026759 0.253545
vt 0.026759 0.247759
vt 0.163834 0.267728
vt 0.186507 0.262936
vt 0.186507 0.267728
vt 0.163834 0.262936
vt 0.330199 0.235468
vt 0.329134 0.264227
vt 0.328365 0.260357
vt 0.326173 0.257076
vt 0.322892 0.254884
vt 0.319022 0.254114
vt 0.307845 0.235468
vt 0.315152 0.254884
vt 0.311871 0.257076
vt 0.309679 0.260357
vt 0.308909 0.264227
vt 0.308960 0.264481
vt 0.308839 0.264481
vt 0.198067 0.223845
vt 0.187550 0.223845
vt 0.187550 0.223814
vt 0.198067 0.241928
vt 0.198067 0.223814
vt 0.187550 0.223767
vt 0.198067 0.223767
vt 0.187550 0.241928
vt 0.198067 0.248627
vt 0.187550 0.248627
vt 0.198067 0.253330
vt 0.187550 0.253330
vt 0.162539 0.223845
vt 0.152021 0.223845
vt 0.152021 0.223814
vt 0.162539 0.241928
vt 0.162539 0.223814
vt 0.152021 0.223767
vt 0.162539 0.223767
vt 0.152021 0.241928
vt 0.162539 0.248627
vt 0.152021 0.248627
vt 0.162539 0.253330
vt 0.152021 0.253330
vt 0.227396 0.281485
vt 0.252407 0.256484
vt 0.252407 0.281485
vt 0.227396 0.256484
vt 0.395635 0.267900
vt 0.391713 0.267900
vt 0.391713 0.267430
vt 0.396043 0.267430
vt 0.393317 0.270570
vt 0.391713 0.287889
vt 0.393907 0.271063
vt 0.397844 0.274463
vt 0.398434 0.274956
vt 0.405071 0.287889
vt 0.399199 0.274956
vt 0.405071 0.274956
vt 0.406984 0.274956
vt 0.406984 0.287889
vt 0.419358 0.274956
vt 0.426303 0.287889
vt 0.420123 0.274956
vt 0.420713 0.274463
vt 0.424649 0.271063
vt 0.425239 0.270570
vt 0.426303 0.267900
vt 0.422922 0.267900
vt 0.426303 0.267430
vt 0.422514 0.267430
vt 0.470244 0.370784
vt 0.473646 0.348107
vt 0.473646 0.370784
vt 0.470244 0.348107
vt 0.473646 0.373620
vt 0.470244 0.373620
vt 0.479237 0.370784
vt 0.479237 0.373620
vt 0.043205 0.247824
vt 0.043205 0.179363
vt 0.048302 0.179363
vt 0.048302 0.247824
vt 0.019341 0.247745
vt 0.024436 0.179321
vt 0.024436 0.247745
vt 0.019341 0.179321
vt 0.046301 0.247824
vt 0.049798 0.247824
vt 0.046301 0.253610
vt 0.049798 0.253610
vt 0.021341 0.247745
vt 0.021341 0.253529
vt 0.017846 0.253529
vt 0.017846 0.247745
vt 0.044268 0.256377
vt 0.048615 0.256377
vt 0.023373 0.256294
vt 0.019028 0.256294
vt 0.470244 0.335311
vt 0.473646 0.335311
vt 0.406718 0.268945
vt 0.421518 0.268945
vt 0.406718 0.272734
vt 0.421518 0.272734
vt 0.397537 0.272734
vt 0.397537 0.268945
vt 0.406764 0.264458
vt 0.421564 0.264458
vt 0.406764 0.268788
vt 0.421564 0.268788
vt 0.397583 0.268788
vt 0.397583 0.264458
vt 0.474404 0.332876
vt 0.487900 0.306721
vt 0.487900 0.332876
vt 0.488734 0.306721
vt 0.474404 0.306721
vt 0.488734 0.332876
vt 0.472317 0.332876
vt 0.489378 0.306721
vt 0.465913 0.306721
vt 0.489378 0.332876
vt 0.465913 0.332876
vt 0.493671 0.306721
vt 0.465079 0.332876
vt 0.493671 0.332876
vt 0.494315 0.306721
vt 0.494315 0.332876
vt 0.465079 0.306721
vt 0.464436 0.332876
vt 0.464436 0.306721
vt 0.460142 0.332876
vt 0.460142 0.306721
vt 0.459498 0.332876
vt 0.459498 0.306721
vt 0.198067 0.203171
vt 0.187550 0.203171
vt 0.187550 0.199308
vt 0.198067 0.207446
vt 0.198067 0.199308
vt 0.187550 0.207446
vt 0.187550 0.197995
vt 0.198067 0.212602
vt 0.198067 0.194011
vt 0.187550 0.212602
vt 0.152021 0.194011
vt 0.198067 0.216926
vt 0.162539 0.197995
vt 0.187550 0.216926
vt 0.152021 0.199308
vt 0.198067 0.220631
vt 0.162539 0.199308
vt 0.187550 0.220631
vt 0.162539 0.203171
vt 0.152021 0.203171
vt 0.162539 0.207446
vt 0.152021 0.207446
vt 0.162539 0.212602
vt 0.152021 0.212602
vt 0.162539 0.216926
vt 0.152021 0.216926
vt 0.162539 0.220631
vt 0.152021 0.220631
vt 0.231427 0.062366
vt 0.231427 0.071181
vt 0.230597 0.071181
vt 0.230597 0.062366
vt 0.457447 0.370784
vt 0.457447 0.348107
vt 0.457447 0.373620
vt 0.033152 0.169071
vt 0.037596 0.163498
vt 0.037596 0.169071
vt 0.034581 0.169760
vt 0.036167 0.169760
vt 0.031986 0.166285
vt 0.031986 0.167831
vt 0.031986 0.164738
vt 0.033152 0.163498
vt 0.034581 0.162810
vt 0.036167 0.162810
vt 0.038762 0.166285
vt 0.038762 0.167831
vt 0.038762 0.164738
vt 0.293434 0.261509
vt 0.280242 0.257639
vt 0.293434 0.257639
vt 0.280242 0.261509
vt 0.280242 0.253769
vt 0.293434 0.253769
vt 0.435484 0.267430
vt 0.450284 0.267787
vt 0.450284 0.267430
vt 0.435484 0.267900
vt 0.450284 0.282964
vt 0.435484 0.287889
vt 0.382532 0.267900
vt 0.367733 0.267900
vt 0.382532 0.267430
vt 0.367733 0.267430
vt 0.367733 0.287889
vt 0.382532 0.287889
vt 0.222527 0.223831
vt 0.227823 0.223831
vt 0.222527 0.223874
vt 0.227823 0.223767
vt 0.222527 0.223767
vt 0.227823 0.223874
vt 0.218664 0.223767
vt 0.222527 0.248768
vt 0.227823 0.248768
vt 0.218664 0.223844
vt 0.218664 0.223895
vt 0.218664 0.253615
vt 0.214388 0.223767
vt 0.214388 0.223903
vt 0.214388 0.255611
vt 0.209232 0.255611
vt 0.214388 0.223849
vt 0.209232 0.223903
vt 0.204908 0.253330
vt 0.209232 0.223849
vt 0.209232 0.223767
vt 0.204908 0.223894
vt 0.201203 0.248627
vt 0.204908 0.223843
vt 0.204908 0.223767
vt 0.201203 0.223873
vt 0.201203 0.223831
vt 0.201203 0.223767
vt 0.186507 0.258143
vt 0.163834 0.258143
vt 0.127562 0.223874
vt 0.122266 0.223874
vt 0.127562 0.223831
vt 0.122266 0.248768
vt 0.127562 0.248768
vt 0.122266 0.223831
vt 0.127562 0.223767
vt 0.122266 0.223767
vt 0.131425 0.223767
vt 0.131425 0.223844
vt 0.135701 0.223767
vt 0.131425 0.223895
vt 0.131425 0.253615
vt 0.135701 0.223849
vt 0.140856 0.223767
vt 0.135701 0.223903
vt 0.135701 0.255611
vt 0.140856 0.223849
vt 0.140856 0.223903
vt 0.140856 0.255611
vt 0.145181 0.253330
vt 0.145180 0.223894
vt 0.148886 0.248627
vt 0.145180 0.223843
vt 0.145181 0.223767
vt 0.148886 0.223873
vt 0.148886 0.223831
vt 0.148886 0.223767
vt 0.271929 0.021652
vt 0.252365 0.019582
vt 0.271929 0.019582
vt 0.252365 0.021652
vt 0.252365 0.017140
vt 0.271929 0.017140
vt 0.252365 0.014698
vt 0.271929 0.014698
vt 0.252365 0.012628
vt 0.271929 0.012628
vt 0.086028 0.221174
vt 0.088218 0.233646
vt 0.086028 0.229098
vt 0.118557 0.233646
vt 0.120747 0.221174
vt 0.120747 0.229098
vt 0.118557 0.216625
vt 0.088218 0.216625
vt 0.479237 0.335311
vt 0.479237 0.348107
vt 0.027249 0.162892
vt 0.029907 0.160063
vt 0.029344 0.163722
vt 0.027249 0.166420
vt 0.031167 0.161782
vt 0.029344 0.166420
vt 0.033646 0.160588
vt 0.029344 0.169118
vt 0.033168 0.158493
vt 0.027249 0.169948
vt 0.036786 0.158493
vt 0.029907 0.172777
vt 0.036308 0.160588
vt 0.031167 0.171059
vt 0.040046 0.160063
vt 0.033646 0.172252
vt 0.038787 0.161782
vt 0.033168 0.174347
vt 0.040610 0.163722
vt 0.036308 0.172252
vt 0.042705 0.162892
vt 0.036786 0.174347
vt 0.042705 0.166420
vt 0.040046 0.172777
vt 0.040610 0.166420
vt 0.038787 0.171059
vt 0.040610 0.169118
vt 0.042705 0.169948
vt 0.054659 0.256377
vt 0.054659 0.253610
vt 0.054659 0.179363
vt 0.054659 0.247824
vt 0.061016 0.179363
vt 0.061016 0.247824
vt 0.012987 0.247745
vt 0.012987 0.179321
vt 0.006634 0.247745
vt 0.006634 0.179321
vt 0.367250 0.081264
vt 0.332477 0.100099
vt 0.332477 0.081264
vt 0.367250 0.100099
vt 0.367250 0.060711
vt 0.332477 0.103741
vt 0.332477 0.060711
vt 0.367250 0.103741
vt 0.332477 0.107344
vt 0.367250 0.107344
vt 0.332477 0.111022
vt 0.332477 0.114741
vt 0.367250 0.114741
vt 0.271925 0.042472
vt 0.252361 0.042472
vt 0.269912 0.114741
vt 0.304685 0.114741
vt 0.059520 0.247824
vt 0.059520 0.253610
vt 0.304685 0.100099
vt 0.269912 0.100099
vt 0.304685 0.081264
vt 0.269912 0.081264
vt 0.269912 0.103741
vt 0.304685 0.060711
vt 0.304685 0.103741
vt 0.269912 0.060711
vt 0.269912 0.107344
vt 0.304685 0.107344
vt 0.269912 0.111022
vt 0.304685 0.111022
vt 0.012987 0.253529
vt 0.008129 0.253529
vt 0.008129 0.247745
vt 0.231633 0.070750
vt 0.237594 0.070750
vt 0.151971 0.253507
vt 0.162488 0.253507
vt 0.162488 0.257831
vt 0.151971 0.257831
vt 0.162488 0.262986
vt 0.151971 0.262986
vt 0.162488 0.267262
vt 0.151971 0.267262
vt 0.187549 0.253506
vt 0.198066 0.253506
vt 0.198066 0.257830
vt 0.187549 0.257830
vt 0.198066 0.262985
vt 0.187549 0.262985
vt 0.198066 0.267261
vt 0.187549 0.267261
vt 0.231633 0.061105
vt 0.237594 0.069920
vt 0.231633 0.069920
vt 0.237594 0.061105
vt 0.469603 0.274956
vt 0.477388 0.274956
vt 0.471516 0.274956
vt 0.293437 0.253707
vt 0.280244 0.251515
vt 0.293437 0.251515
vt 0.280244 0.253707
vt 0.280244 0.248235
vt 0.293437 0.248235
vt 0.280244 0.244364
vt 0.293437 0.244364
vt 0.292571 0.244110
vt 0.293437 0.244110
vt 0.280216 0.270921
vt 0.293408 0.270921
vt 0.293408 0.271175
vt 0.281082 0.271175
vt 0.280216 0.267050
vt 0.293408 0.267050
vt 0.280216 0.263770
vt 0.293408 0.263770
vt 0.280216 0.261578
vt 0.293408 0.261578
vt 0.252361 0.047355
vt 0.271925 0.047355
vt 0.271925 0.049268
vt 0.252361 0.047241
vt 0.252361 0.049268
vt 0.252361 0.049425
vt 0.271925 0.049425
vt 0.271925 0.047241
vt 0.252361 0.045172
vt 0.271925 0.045172
vt 0.252361 0.044913
vt 0.271925 0.044913
vt 0.252361 0.043079
vt 0.271925 0.043079
vt 0.012987 0.256294
vt 0.006947 0.256294
vt 0.271929 0.024149
vt 0.252365 0.024149
vt 0.252365 0.024035
vt 0.271929 0.024035
vt 0.271929 0.026219
vt 0.252365 0.022122
vt 0.252365 0.026219
vt 0.271929 0.022122
vt 0.252365 0.021965
vt 0.271929 0.021965
vt 0.252365 0.026477
vt 0.271929 0.026477
vt 0.271929 0.028311
vt 0.252365 0.028311
vt 0.252365 0.028919
vt 0.271929 0.028919
vt 0.378724 0.254390
vt 0.380253 0.266218
vt 0.378724 0.266218
vt 0.198135 0.277887
vt 0.152089 0.277887
vt 0.162606 0.273903
vt 0.152089 0.272591
vt 0.162606 0.272591
vt 0.187617 0.273903
vt 0.198135 0.272591
vt 0.187617 0.272591
vt 0.473646 0.386416
vt 0.470244 0.386416
vt 0.479237 0.386416
vt 0.225184 0.281485
vt 0.211889 0.256484
vt 0.217045 0.256484
vt 0.221320 0.256484
vt 0.226496 0.281485
vt 0.225184 0.256484
vt 0.226496 0.256484
vt 0.221320 0.286332
vt 0.207565 0.256484
vt 0.203860 0.281344
vt 0.200724 0.274646
vt 0.207565 0.286047
vt 0.217045 0.288328
vt 0.211889 0.288328
vt 0.200724 0.256562
vt 0.203860 0.256484
vt 0.200724 0.256531
vt 0.200724 0.256484
vt 0.258396 0.256484
vt 0.262672 0.256484
vt 0.258396 0.286332
vt 0.254533 0.281485
vt 0.254533 0.256484
vt 0.253220 0.256484
vt 0.253220 0.281485
vt 0.267828 0.256484
vt 0.275857 0.281344
vt 0.278993 0.274646
vt 0.272152 0.286047
vt 0.262672 0.288328
vt 0.267828 0.288328
vt 0.278993 0.256562
vt 0.272152 0.256484
vt 0.278993 0.256531
vt 0.275857 0.256484
vt 0.278993 0.256484
vt 0.492033 0.370784
vt 0.492033 0.373620
vt 0.186507 0.272520
vt 0.163834 0.272520
vt 0.330199 0.222276
vt 0.307845 0.222276
vt 0.231382 0.071473
vt 0.230552 0.080288
vt 0.230552 0.071473
vt 0.231382 0.080288
vt 0.492033 0.348107
vt 0.060703 0.256377
vt 0.380253 0.254390
vt 0.395694 0.254390
vt 0.395694 0.266218
vt 0.395694 0.247052
vt 0.380253 0.247052
vt 0.378724 0.247052
vt 0.368048 0.254390
vt 0.368048 0.247052
vt 0.368048 0.266218
vt 0.455921 0.306683
vt 0.458894 0.332838
vt 0.458449 0.332838
vt 0.455921 0.332838
vt 0.458894 0.316696
vt 0.458449 0.306683
vt 0.458894 0.306683
vt 0.497750 0.332810
vt 0.494777 0.306654
vt 0.495222 0.306654
vt 0.497750 0.306654
vt 0.494777 0.316668
vt 0.495115 0.332810
vt 0.494777 0.332810
vt 0.065050 0.256377
vt 0.063017 0.253610
vt 0.004634 0.253529
vt 0.002602 0.256294
vt 0.066114 0.179363
vt 0.066114 0.247824
vt 0.001539 0.247745
vt 0.001539 0.179321
vt 0.063017 0.247824
vt 0.004634 0.247745
vt 0.072784 0.256371
vt 0.068902 0.253604
vt 0.073368 0.253604
vt 0.067232 0.256371
vt 0.082631 0.253604
vt 0.078748 0.256371
vt 0.078165 0.253604
vt 0.084300 0.256371
vt 0.198067 0.272413
vt 0.187550 0.272413
vt 0.187550 0.267566
vt 0.198067 0.267566
vt 0.162539 0.272413
vt 0.152021 0.272413
vt 0.152021 0.267566
vt 0.162539 0.267566
vt 0.484874 0.267430
vt 0.480952 0.267900
vt 0.480544 0.267430
vt 0.484874 0.267900
vt 0.483270 0.270570
vt 0.484874 0.287889
vt 0.482680 0.271063
vt 0.478743 0.274463
vt 0.478153 0.274956
vt 0.471516 0.287889
vt 0.469603 0.282964
vt 0.457229 0.274956
vt 0.456464 0.274956
vt 0.455874 0.274463
vt 0.451938 0.271063
vt 0.451348 0.270570
vt 0.453763 0.267787
vt 0.454073 0.267430
vt 0.497623 0.370784
vt 0.497623 0.348107
vt 0.501026 0.348107
vt 0.501026 0.370784
vt 0.501026 0.373620
vt 0.497623 0.373620
vt 0.273869 0.223874
vt 0.273869 0.223831
vt 0.273869 0.248768
vt 0.273869 0.223767
vt 0.079026 0.247818
vt 0.079026 0.179357
vt 0.084901 0.179357
vt 0.084901 0.247818
vt 0.072506 0.247818
vt 0.072506 0.179357
vt 0.066632 0.247818
vt 0.066632 0.179357
vt 0.082171 0.257551
vt 0.078748 0.257551
vt 0.072784 0.257551
vt 0.069361 0.257551
vt 0.073368 0.247818
vt 0.068902 0.247818
vt 0.078165 0.247818
vt 0.082631 0.247818
vt 0.365744 0.235468
vt 0.364680 0.264227
vt 0.363910 0.260357
vt 0.361718 0.257076
vt 0.358438 0.254884
vt 0.354568 0.254114
vt 0.350698 0.254884
vt 0.343391 0.235468
vt 0.347417 0.257076
vt 0.345225 0.260357
vt 0.344455 0.264227
vt 0.344506 0.264481
vt 0.344386 0.264481
vt 0.186474 0.258016
vt 0.163802 0.258016
vt 0.186474 0.253224
vt 0.163802 0.253224
vt 0.327198 0.100099
vt 0.309964 0.100099
vt 0.325673 0.081264
vt 0.311489 0.081264
vt 0.326338 0.060711
vt 0.310824 0.060711
vt 0.326787 0.103741
vt 0.329359 0.103741
vt 0.329059 0.107141
vt 0.326600 0.103462
vt 0.331735 0.107344
vt 0.329099 0.107344
vt 0.322921 0.101004
vt 0.329831 0.111022
vt 0.318581 0.100140
vt 0.329922 0.111482
vt 0.314241 0.101004
vt 0.332412 0.114741
vt 0.310562 0.103462
vt 0.329274 0.114741
vt 0.307803 0.103741
vt 0.329059 0.115822
vt 0.310375 0.103741
vt 0.308103 0.107141
vt 0.305427 0.107344
vt 0.308063 0.107344
vt 0.307331 0.111022
vt 0.307240 0.111482
vt 0.304750 0.114741
vt 0.307888 0.114741
vt 0.308103 0.115822
vt 0.280244 0.244110
vt 0.280216 0.271175
vt 0.329204 0.264481
vt 0.329084 0.264481
vt 0.364749 0.264481
vt 0.364629 0.264481
vt 0.331949 0.263786
vt 0.343391 0.263786
vt 0.343395 0.263922
vt 0.331894 0.263922
vt 0.343409 0.264052
vt 0.331841 0.264052
vt 0.343430 0.264172
vt 0.331793 0.264172
vt 0.343459 0.264413
vt 0.331709 0.264481
vt 0.343700 0.264442
vt 0.329307 0.264714
vt 0.343820 0.264463
vt 0.328440 0.264794
vt 0.343951 0.264477
vt 0.327526 0.264879
vt 0.344086 0.264481
vt 0.326568 0.264970
vt 0.329504 0.264481
vt 0.329639 0.264477
vt 0.329770 0.264463
vt 0.329890 0.264442
vt 0.330131 0.264413
vt 0.330160 0.264172
vt 0.330181 0.264052
vt 0.330195 0.263922
vt 0.330199 0.263786
vt 0.296387 0.263825
vt 0.307845 0.263825
vt 0.307849 0.263953
vt 0.296335 0.263953
vt 0.307862 0.264076
vt 0.296286 0.264076
vt 0.307882 0.264190
vt 0.296240 0.264190
vt 0.307909 0.264417
vt 0.296161 0.264481
vt 0.308136 0.264444
vt 0.311826 0.263811
vt 0.308249 0.264464
vt 0.318002 0.263580
vt 0.308372 0.264477
vt 0.324716 0.263335
vt 0.308500 0.264481
vt 0.331664 0.263075
vt 0.340848 0.264481
vt 0.331836 0.264481
vt 0.323170 0.264481
vt 0.315184 0.264481
vt 0.294653 0.264481
vt 0.294653 0.264190
vt 0.294653 0.264076
vt 0.294653 0.263953
vt 0.294653 0.263825
vt 0.294653 0.235468
vt 0.365744 0.263825
vt 0.365731 0.263953
vt 0.365694 0.264076
vt 0.365633 0.264190
vt 0.365552 0.264289
vt 0.365453 0.264371
vt 0.365339 0.264431
vt 0.365216 0.264468
vt 0.365088 0.264481
s 1
f 1/1/1 2/2/1 3/3/1
f 4/4/1 1/1/1 3/3/1
f 4/4/1 5/5/1 1/1/1
f 3/3/1 6/6/1 4/4/1
f 5/5/1 7/7/1 1/1/1
f 3/3/1 8/8/1 6/6/1
f 7/7/1 9/9/1 1/1/1
f 8/8/1 3/3/1 10/10/1
f 11/11/1 9/9/1 7/7/1
f 8/8/1 10/10/1 12/12/1
f 13/13/1 9/9/1 11/11/1
f 14/14/1 12/12/1 10/10/1
f 9/9/1 13/13/1 15/15/1
f 14/14/1 10/10/1 16/16/1
f 17/17/1 15/15/1 13/13/1
f 16/16/1 18/18/1 14/14/1
f 19/19/1 15/15/1 17/17/1
f 20/20/1 18/18/1 16/16/1
f 15/15/1 19/19/1 21/21/1
f 16/16/1 22/22/1 20/20/1
f 21/21/1 19/19/1 23/23/1
f 22/22/1 24/24/1 20/20/1
f 21/21/1 23/23/1 25/25/1
f 24/24/1 22/22/1 26/26/1
f 23/23/1 27/27/1 25/25/1
f 24/24/1 26/26/1 28/28/1
f 25/25/1 27/27/1 29/29/1
f 30/30/1 28/28/1 26/26/1
f 31/31/1 32/32/1 33/33/1
f 33/33/1 34/34/1 31/31/1
f 2/2/1 1/1/1 35/35/1
f 35/35/1 36/36/1 2/2/1
f 36/36/1 35/35/1 37/37/1
f 38/38/2 39/39/3 40/40/3
f 39/39/3 38/38/2 41/41/2
f 42/42/4 40/40/3 39/39/3
f 40/40/3 42/42/4 43/43/4
f 44/44/5 43/43/4 42/42/4
f 43/43/4 44/44/5 45/45/5
f 46/46/4 47/47/5 48/48/5
f 48/48/5 49/49/4 46/46/4
f 49/49/4 50/50/3 46/46/4
f 51/51/3 46/46/4 50/50/3
f 52/52/2 51/51/3 50/50/3
f 51/51/3 52/52/2 53/53/2
f 54/54/5 55/55/4 56/56/5
f 55/55/4 57/57/4 56/56/5
f 55/55/4 58/58/3 57/57/4
f 58/58/3 59/59/3 57/57/4
f 58/58/3 60/60/2 59/59/3
f 60/60/2 61/61/2 59/59/3
f 62/62/6 63/63/6 64/64/6
f 63/63/6 62/62/6 65/65/6
f 67/66/6 66/67/6 68/68/6
f 67/66/6 68/68/6 69/69/6
f 67/66/6 69/69/6 70/70/6
f 67/66/6 70/70/6 71/71/6
f 71/71/6 72/72/6 67/66/6
f 73/73/6 72/72/6 71/71/6
f 73/73/6 74/74/6 72/72/6
f 74/74/6 75/75/6 72/72/6
f 76/76/6 72/72/6 75/75/6
f 76/76/6 699/77/6 707/78/6
f 77/79/6 78/80/6 79/81/6
f 80/82/7 78/80/6 77/79/6
f 77/79/6 79/81/6 81/83/6
f 81/83/6 79/81/6 82/84/6
f 81/83/6 82/84/6 83/85/6
f 80/82/7 84/86/7 78/80/6
f 85/87/8 84/86/7 80/82/7
f 85/87/8 86/88/8 84/86/7
f 87/89/9 86/88/8 85/87/8
f 87/89/9 88/90/9 86/88/8
f 89/91/6 90/92/6 91/93/6
f 92/94/7 90/92/6 89/91/6
f 89/91/6 91/93/6 93/95/6
f 93/95/6 91/93/6 94/96/6
f 93/95/6 94/96/6 95/97/6
f 96/98/7 90/92/6 92/94/7
f 97/99/8 96/98/7 92/94/7
f 98/100/8 96/98/7 97/99/8
f 99/101/9 98/100/8 97/99/8
f 99/101/9 100/102/9 98/100/8
f 101/103/6 102/104/6 103/105/6
f 102/104/6 101/103/6 104/106/6
f 105/107/6 106/108/6 107/109/6
f 105/107/6 107/109/6 108/110/6
f 106/108/6 105/107/6 109/111/6
f 110/112/6 106/108/6 109/111/6
f 111/113/6 110/112/6 109/111/6
f 110/112/6 111/113/6 112/114/6
f 112/114/6 113/115/6 110/112/6
f 114/116/6 110/112/6 113/115/6
f 114/116/6 113/115/6 115/117/6
f 114/116/6 115/117/6 116/118/6
f 117/119/6 114/116/6 116/118/6
f 114/116/6 117/119/6 118/120/6
f 119/121/6 118/120/6 117/119/6
f 120/122/6 118/120/6 119/121/6
f 120/122/6 119/121/6 121/123/6
f 121/123/6 122/124/6 120/122/6
f 122/124/6 123/125/6 120/122/6
f 120/122/6 123/125/6 124/126/6
f 124/126/6 125/127/6 120/122/6
f 124/126/6 126/128/6 125/127/6
f 126/128/6 127/129/6 125/127/6
f 127/129/6 126/128/6 128/130/6
f 129/131/6 130/132/6 131/133/6
f 130/132/6 129/131/6 132/134/6
f 133/135/6 129/131/6 131/133/6
f 133/135/6 134/136/6 129/131/6
f 135/137/6 133/135/6 131/133/6
f 133/135/6 135/137/6 136/138/6
f 137/139/10 138/140/10 139/141/10
f 137/139/10 139/141/10 140/142/10
f 141/143/11 142/144/11 143/145/11
f 142/144/11 141/143/11 144/146/11
f 145/147/10 146/148/10 54/149/10
f 54/149/10 146/148/10 147/150/10
f 148/151/11 60/152/11 149/153/11
f 148/151/11 149/153/11 150/154/11
f 58/58/12 55/55/13 51/51/14
f 46/46/13 51/51/14 55/55/13
f 47/47/15 46/46/13 54/54/16
f 54/54/16 46/46/13 55/55/13
f 60/60/17 51/51/14 53/53/18
f 51/51/14 60/60/17 58/58/12
f 47/155/15 147/150/19 151/156/19
f 147/150/19 47/155/15 54/149/16
f 149/153/20 53/157/18 152/158/20
f 53/157/18 149/153/20 60/152/17
f 155/134/21 156/159/21 157/132/21
f 157/132/21 156/159/21 158/160/21
f 159/161/21 160/162/21 161/163/21
f 161/163/21 160/162/21 162/164/21
f 163/165/21 159/161/21 161/163/21
f 164/166/21 159/161/21 163/165/21
f 165/167/21 166/168/21 167/169/21
f 167/169/21 166/168/21 168/170/21
f 169/171/21 165/167/21 167/169/21
f 170/172/21 165/167/21 169/171/21
f 171/173/21 172/174/21 173/175/21
f 174/176/21 173/175/21 172/174/21
f 172/174/21 171/173/21 175/177/21
f 173/175/21 174/176/21 176/178/21
f 177/179/21 175/177/21 171/173/21
f 178/180/22 176/178/22 174/176/22
f 179/181/21 175/177/21 177/179/21
f 176/178/22 178/180/23 180/182/24
f 181/183/21 179/181/21 177/179/21
f 182/184/24 180/182/24 178/180/23
f 183/185/21 179/181/21 181/183/21
f 180/182/24 182/184/24 184/186/24
f 185/187/22 184/186/24 182/184/24
f 184/186/24 185/187/22 186/188/22
f 179/181/21 183/185/21 187/189/21
f 188/190/25 187/189/25 183/185/25
f 187/189/25 188/190/26 189/191/27
f 190/192/27 189/191/27 188/190/26
f 189/191/27 190/192/27 191/193/27
f 192/194/25 191/193/27 190/192/27
f 191/193/27 192/194/25 193/195/25
f 194/196/21 195/197/21 196/198/21
f 197/199/21 195/197/21 194/196/21
f 194/196/21 196/198/21 198/200/21
f 197/199/21 199/201/21 195/197/21
f 200/202/21 198/200/21 196/198/21
f 201/203/21 199/201/21 197/199/21
f 198/200/21 200/202/21 202/204/21
f 201/203/21 203/205/21 199/201/21
f 204/206/21 202/204/21 200/202/21
f 205/207/21 203/205/21 201/203/21
f 204/206/21 200/202/21 206/208/21
f 205/207/21 207/209/21 203/205/21
f 206/208/21 208/210/21 204/206/21
f 209/211/21 207/209/21 205/207/21
f 208/210/21 206/208/21 210/212/21
f 209/211/21 211/213/21 207/209/21
f 212/85/21 211/213/21 209/211/21
f 212/85/21 213/84/21 211/213/21
f 214/214/21 208/210/21 210/212/21
f 214/214/21 215/215/21 208/210/21
f 216/216/21 215/215/21 214/214/21
f 216/216/21 217/217/21 215/215/21
f 218/218/21 217/217/21 216/216/21
f 218/218/21 219/219/21 217/217/21
f 220/220/21 219/219/21 218/218/21
f 220/220/21 221/221/21 219/219/21
f 222/222/21 221/221/21 220/220/21
f 222/222/21 223/223/21 221/221/21
f 224/97/21 223/223/21 222/222/21
f 224/97/21 225/96/21 223/223/21
f 226/224/28 227/225/28 228/226/28
f 228/226/28 229/227/28 226/224/28
f 230/228/29 231/134/29 232/131/29
f 231/134/29 230/228/29 233/229/29
f 232/131/29 234/230/29 230/228/29
f 234/230/29 232/131/29 235/136/29
f 236/231/21 237/232/21 238/233/21
f 236/231/21 238/233/21 239/234/21
f 239/234/21 238/233/21 240/235/21
f 241/236/21 236/231/21 242/237/21
f 243/238/21 236/231/21 241/236/21
f 237/232/21 236/231/21 243/238/21
f 244/239/21 237/232/21 243/238/21
f 237/232/21 244/239/21 245/240/21
f 245/240/21 246/241/21 237/232/21
f 237/232/21 247/242/21 238/233/21
f 247/242/21 248/243/21 238/233/21
f 247/242/21 237/232/21 249/244/21
f 70/245/30 250/246/28 71/247/28
f 250/246/28 70/245/30 251/248/30
f 252/249/31 71/247/28 250/246/28
f 71/247/28 252/249/31 73/250/31
f 253/129/32 254/251/32 255/127/32
f 256/252/32 254/251/32 257/253/32
f 254/251/32 256/252/32 258/254/32
f 255/127/32 254/251/32 258/254/32
f 258/254/32 256/252/32 259/255/32
f 260/256/32 258/254/32 259/255/32
f 258/254/32 260/256/32 255/127/32
f 261/122/32 255/127/32 260/256/32
f 262/257/29 263/258/29 264/259/29
f 264/259/29 263/258/29 265/260/29
f 262/257/29 266/261/29 263/258/29
f 267/109/29 262/257/29 264/259/29
f 262/257/29 268/262/29 266/261/29
f 269/108/29 262/257/29 267/109/29
f 269/108/29 268/262/29 262/257/29
f 269/108/29 270/112/29 268/262/29
f 271/263/32 272/264/32 273/265/32
f 271/263/32 274/266/32 272/264/32
f 275/267/32 274/266/32 271/263/32
f 273/265/32 272/264/32 276/268/32
f 271/263/32 277/269/32 275/267/32
f 278/270/32 273/265/32 276/268/32
f 278/270/32 276/268/32 279/271/32
f 273/265/32 280/272/32 271/263/32
f 277/269/32 271/263/32 280/272/32
f 278/270/32 281/273/32 273/265/32
f 280/272/32 273/265/32 281/273/32
f 281/273/32 278/270/32 282/274/32
f 280/272/32 283/275/32 277/269/32
f 282/274/32 284/276/32 281/273/32
f 284/276/32 282/274/32 285/277/32
f 286/278/32 284/276/32 285/277/32
f 281/273/32 287/279/32 280/272/32
f 283/275/32 280/272/32 287/279/32
f 287/279/32 281/273/32 284/276/32
f 286/278/32 288/280/32 284/276/32
f 288/280/32 287/279/32 284/276/32
f 288/280/32 286/278/32 289/281/32
f 290/282/32 283/275/32 287/279/32
f 290/282/32 287/279/32 288/280/32
f 291/283/32 283/275/32 290/282/32
f 289/281/32 292/284/32 288/280/32
f 292/284/32 290/282/32 288/280/32
f 292/284/32 289/281/32 293/285/32
f 294/286/32 291/283/32 290/282/32
f 294/286/32 290/282/32 292/284/32
f 295/287/32 291/283/32 294/286/32
f 293/285/32 296/288/32 292/284/32
f 296/288/32 294/286/32 292/284/32
f 296/288/32 293/285/32 297/82/32
f 297/82/32 298/79/32 296/288/32
f 299/289/32 294/286/32 296/288/32
f 299/289/32 295/287/32 294/286/32
f 298/79/32 299/289/32 296/288/32
f 300/290/32 295/287/32 299/289/32
f 301/83/32 299/289/32 298/79/32
f 301/83/32 300/290/32 299/289/32
f 302/85/32 300/290/32 301/83/32
f 303/65/21 304/291/21 305/63/21
f 304/291/21 303/65/21 306/292/21
f 307/293/29 308/294/29 309/295/29
f 307/293/29 310/296/29 308/294/29
f 307/293/29 311/297/29 310/296/29
f 309/295/29 308/294/29 312/298/29
f 309/295/29 312/298/29 313/299/29
f 313/299/29 312/298/29 314/300/29
f 315/301/29 309/295/29 313/299/29
f 316/302/29 309/295/29 315/301/29
f 316/302/29 307/293/29 309/295/29
f 317/303/29 316/302/29 315/301/29
f 318/304/29 311/297/29 307/293/29
f 318/304/29 307/293/29 316/302/29
f 318/304/29 319/305/29 311/297/29
f 320/306/29 316/302/29 317/303/29
f 320/306/29 318/304/29 316/302/29
f 321/307/29 320/306/29 317/303/29
f 322/308/29 319/305/29 318/304/29
f 322/308/29 318/304/29 320/306/29
f 322/308/29 323/309/29 319/305/29
f 324/310/29 320/306/29 321/307/29
f 324/310/29 322/308/29 320/306/29
f 325/311/29 323/309/29 322/308/29
f 325/311/29 322/308/29 324/310/29
f 325/311/29 326/312/29 323/309/29
f 325/311/29 327/313/29 326/312/29
f 327/313/29 325/311/29 328/314/29
f 324/310/29 328/314/29 325/311/29
f 328/314/29 329/315/29 327/313/29
f 321/307/29 330/316/29 324/310/29
f 328/314/29 324/310/29 330/316/29
f 330/316/29 321/307/29 331/317/29
f 329/315/29 328/314/29 332/318/29
f 330/316/29 332/318/29 328/314/29
f 332/318/29 333/98/29 329/315/29
f 333/98/29 332/318/29 334/92/29
f 332/318/29 330/316/29 335/319/29
f 331/317/29 335/319/29 330/316/29
f 335/319/29 334/92/29 332/318/29
f 335/319/29 331/317/29 336/320/29
f 334/92/29 335/319/29 337/93/29
f 336/320/29 337/93/29 335/319/29
f 337/93/29 336/320/29 338/96/29
f 339/321/33 340/322/34 341/323/34
f 340/322/34 339/321/33 342/324/33
f 343/325/28 341/323/34 340/322/34
f 341/323/34 343/325/28 344/326/28
f 345/327/35 344/326/28 343/325/28
f 344/326/28 345/327/35 346/328/35
f 347/329/36 346/328/35 345/327/35
f 346/328/35 347/329/36 348/330/36
f 349/331/28 350/332/37 351/333/28
f 350/332/37 349/331/28 48/334/37
f 50/335/28 48/334/37 349/331/28
f 48/334/37 50/335/28 49/336/28
f 50/335/28 349/331/28 52/337/38
f 52/337/38 349/331/28 352/338/39
f 353/132/21 354/339/21 135/340/21
f 354/339/21 353/132/21 355/160/21
f 356/341/28 357/342/28 358/343/28
f 358/343/28 359/344/28 356/341/28
f 358/343/28 357/342/28 360/345/28
f 359/344/28 358/343/28 361/346/28
f 357/342/28 362/347/28 360/345/28
f 359/344/28 361/346/28 363/348/28
f 362/347/28 357/342/28 364/349/28
f 359/344/28 363/348/28 365/350/28
f 366/351/28 362/347/28 364/349/28
f 363/348/28 367/352/28 365/350/28
f 362/347/28 366/351/28 368/353/28
f 367/352/28 363/348/28 369/354/28
f 370/355/28 368/353/28 366/351/28
f 371/356/28 367/352/28 369/354/28
f 370/355/28 372/357/28 368/353/28
f 373/358/28 367/352/28 371/356/28
f 370/355/28 374/359/28 372/357/28
f 375/360/28 373/358/28 371/356/28
f 374/359/28 370/355/28 376/361/28
f 375/360/28 377/362/28 373/358/28
f 376/361/28 378/363/28 374/359/28
f 375/360/28 379/364/28 377/362/28
f 374/359/28 378/363/28 380/365/28
f 379/364/28 375/360/28 381/366/28
f 378/363/28 382/367/28 380/365/28
f 382/367/28 379/364/28 381/366/28
f 382/367/28 378/363/28 383/368/28
f 379/364/28 382/367/28 383/368/28
f 147/150/40 384/369/41 151/156/42
f 384/369/41 147/150/40 385/370/43
f 386/142/32 387/141/32 388/371/32
f 386/142/32 388/371/32 389/372/32
f 389/372/32 388/371/32 390/373/32
f 389/372/32 390/373/32 391/374/32
f 395/375/29 396/146/29 397/143/29
f 396/146/29 395/375/29 398/376/29
f 398/376/29 395/375/29 399/377/29
f 398/376/29 399/377/29 400/378/29
f 401/379/44 402/380/45 403/381/44
f 402/380/45 401/379/44 404/382/45
f 403/381/44 405/383/46 401/379/44
f 404/382/45 406/384/47 402/380/45
f 407/385/46 405/383/46 403/381/44
f 406/384/47 404/382/45 408/386/47
f 406/384/47 408/386/47 409/387/48
f 409/387/48 408/386/47 410/388/48
f 410/388/48 411/389/49 409/387/48
f 411/389/49 410/388/48 412/21/49
f 411/389/49 412/21/49 413/390/50
f 413/390/50 412/21/49 414/391/50
f 487/392/51 488/393/51 433/394/51 434/395/51
f 415/148/32 416/372/32 147/150/32
f 147/150/32 416/372/32 417/370/32
f 416/372/32 418/396/32 417/370/32
f 417/370/32 418/396/32 419/397/32
f 421/398/52 422/399/52 423/400/53
f 423/400/53 422/399/52 424/401/53
f 421/398/52 425/402/54 422/399/52
f 426/403/55 423/400/53 424/401/53
f 427/404/54 425/402/54 421/398/52
f 426/403/55 424/401/53 428/405/55
f 427/404/54 429/406/56 425/402/54
f 430/407/56 429/406/56 427/404/54
f 430/407/56 431/408/57 429/406/56
f 432/409/57 431/408/57 430/407/56
f 432/409/57 433/394/58 431/408/57
f 434/395/58 433/394/58 432/409/57
f 435/375/29 436/410/29 437/411/29
f 435/375/29 437/411/29 438/412/29
f 439/154/29 436/410/29 435/375/29
f 439/154/29 149/153/29 436/410/29
f 440/413/32 441/414/32 442/32/32
f 440/413/32 442/32/32 443/31/32
f 444/415/59 445/416/59 446/417/60
f 444/415/59 446/417/60 447/418/60
f 447/418/60 446/417/60 448/419/61
f 447/418/60 448/419/61 449/420/61
f 449/420/61 448/419/61 450/421/62
f 449/420/61 450/421/62 451/422/62
f 452/423/59 453/424/59 454/425/60
f 452/423/59 454/425/60 455/426/60
f 455/426/60 454/425/60 456/427/61
f 455/426/60 456/427/61 457/428/61
f 457/428/61 456/427/61 458/429/62
f 457/428/61 458/429/62 459/430/62
f 460/431/29 461/432/29 462/433/29
f 461/432/29 460/431/29 463/434/29
f 464/435/1 465/436/1 466/437/1
f 73/438/31 467/439/63 74/440/63
f 467/439/63 73/438/31 252/441/31
f 468/442/64 74/440/63 467/439/63
f 74/440/63 468/442/64 75/443/64
f 469/444/32 75/443/64 468/442/64
f 75/443/64 469/444/32 76/445/32
f 76/445/32 704/446/65 699/447/65
f 470/448/29 66/449/29 703/450/66 705/451/66
f 66/449/29 470/448/29 471/452/67
f 471/452/67 68/453/67 66/449/29
f 68/453/67 471/452/67 472/454/68
f 472/454/68 69/455/68 68/453/67
f 251/456/30 69/455/68 472/454/68
f 69/455/68 251/456/30 70/457/30
f 473/458/69 474/459/69 475/460/70
f 476/461/71 474/459/69 473/458/69
f 475/460/70 477/462/70 473/458/69
f 475/460/70 478/463/70 477/462/70
f 479/464/70 478/463/70 475/460/70
f 474/459/69 476/461/71 480/465/71
f 480/465/71 476/461/71 481/466/71
f 480/465/71 481/466/71 482/467/71
f 482/467/71 481/466/71 483/468/32
f 483/468/32 484/469/32 482/467/71
f 485/470/72 484/469/32 483/468/32
f 484/469/32 485/470/72 486/471/72
f 486/471/72 485/470/72 487/392/72
f 487/392/72 485/470/72 488/393/72
f 153/472/73 437/411/73 436/410/73
f 437/411/73 153/472/73 154/473/73
f 149/153/73 153/472/73 436/410/73
f 152/158/73 153/472/73 149/153/73
f 489/474/74 490/475/74 491/476/75
f 489/474/74 491/476/75 492/477/75
f 490/475/74 489/474/74 493/478/74
f 494/479/76 492/477/75 491/476/75
f 493/478/74 495/480/74 490/475/74
f 492/477/75 494/479/76 496/481/76
f 496/481/76 494/479/76 497/482/76
f 496/481/76 497/482/76 498/483/76
f 493/478/74 499/484/29 495/480/74
f 500/485/29 499/484/29 493/478/74
f 499/484/29 500/485/29 501/486/77
f 501/486/77 502/487/77 499/484/29
f 501/486/77 503/488/77 502/487/77
f 504/489/77 503/488/77 501/486/77
f 505/490/78 506/491/78 507/492/78
f 508/493/28 509/494/28 510/495/28
f 511/496/28 510/495/28 509/494/28
f 510/495/28 511/496/28 512/497/28
f 508/493/28 510/495/28 513/498/28
f 513/498/28 514/499/28 508/493/28
f 514/499/28 513/498/28 515/500/28
f 516/135/28 517/501/28 518/136/28
f 518/136/28 517/501/28 234/502/28
f 517/501/28 516/135/28 136/138/28
f 136/138/28 519/503/28 517/501/28
f 520/504/32 521/505/32 522/506/32
f 520/504/32 522/506/32 523/507/32
f 523/507/32 524/508/32 520/504/32
f 523/507/32 525/509/32 524/508/32
f 524/508/32 525/509/32 526/510/32
f 527/511/32 521/505/32 520/504/32
f 521/505/32 527/511/32 528/512/32
f 529/513/32 528/512/32 527/511/32
f 530/514/32 528/512/32 529/513/32
f 527/511/32 531/515/32 529/513/32
f 532/516/32 531/515/32 527/511/32
f 531/515/32 532/516/32 533/517/32
f 528/512/32 530/514/32 534/518/32
f 528/512/32 534/518/32 535/519/32
f 536/520/32 535/519/32 534/518/32
f 535/519/32 536/520/32 537/521/32
f 538/522/29 539/523/29 540/524/29
f 538/522/29 540/524/29 541/525/29
f 538/522/29 541/525/29 542/526/29
f 541/525/29 543/527/29 542/526/29
f 543/527/29 541/525/29 544/528/29
f 539/523/29 545/529/29 540/524/29
f 540/524/29 545/529/29 546/530/29
f 545/529/29 547/531/29 546/530/29
f 548/532/29 540/524/29 546/530/29
f 540/524/29 548/532/29 549/533/29
f 549/533/29 548/532/29 550/534/29
f 547/531/29 545/529/29 551/535/29
f 551/535/29 545/529/29 552/536/29
f 551/535/29 552/536/29 553/537/29
f 552/536/29 554/538/29 553/537/29
f 553/537/29 554/538/29 555/539/29
f 135/137/32 354/540/32 136/138/32
f 136/138/32 354/540/32 519/541/32
f 556/542/28 557/543/28 558/64/28
f 559/62/28 558/64/28 557/543/28
f 72/72/21 394/544/21 67/66/21
f 394/544/21 72/72/21 420/545/21
f 560/546/21 561/547/21 562/548/21
f 561/547/21 560/546/21 563/549/21
f 564/137/32 565/340/32 566/550/32
f 564/137/32 566/550/32 355/540/32
f 419/397/79 384/369/41 385/370/43
f 392/551/80 384/369/41 419/397/79
f 505/552/81 567/553/82 506/491/83
f 567/553/82 568/554/83 506/491/83
f 567/553/82 505/552/81 569/555/28
f 570/556/28 569/555/28 505/552/81
f 570/556/28 505/552/81 571/557/28
f 571/557/28 505/490/81 572/558/28
f 573/559/28 571/557/28 572/558/28
f 572/558/28 505/490/81 266/560/28
f 505/490/81 507/492/28 266/560/28
f 574/561/84 575/562/84 576/563/84
f 574/561/84 576/563/84 577/564/84
f 575/562/84 574/561/84 578/565/84
f 579/566/84 578/565/84 574/561/84
f 578/565/84 579/566/84 580/567/84
f 581/568/85 582/569/85 583/570/85
f 581/568/85 583/570/85 584/571/85
f 582/569/85 581/568/85 585/572/85
f 585/572/85 581/568/85 586/573/85
f 585/572/85 586/573/85 587/574/85
f 393/575/86 419/397/87 588/576/88
f 419/397/87 393/575/86 392/551/87
f 589/577/89 437/411/90 590/578/91
f 154/473/90 590/578/91 437/411/90
f 591/374/92 592/373/92 593/579/92
f 591/374/92 593/579/92 594/580/92
f 595/581/93 596/378/93 597/377/93
f 596/378/93 595/581/93 598/582/93
f 599/396/92 600/583/92 419/397/92
f 419/397/92 600/583/92 588/576/92
f 601/412/93 437/411/93 589/577/93
f 601/412/93 589/577/93 602/584/93
f 603/585/94 588/586/88 604/587/94
f 588/586/88 603/585/94 393/588/86
f 589/589/89 605/590/95 606/591/95
f 605/590/95 589/589/89 590/592/91
f 603/585/94 606/591/95 605/590/95
f 606/591/95 603/585/94 604/587/94
f 607/593/96 608/594/96 609/595/96
f 607/593/96 609/595/96 610/596/96
f 611/597/96 612/598/96 613/599/96
f 611/597/96 613/599/96 614/600/96
f 615/601/1 616/602/1 617/603/1
f 616/602/1 615/601/1 618/604/1
f 619/605/1 616/602/1 618/604/1
f 619/605/1 618/604/1 266/606/1
f 266/606/1 620/607/1 619/605/1
f 621/608/1 620/607/1 266/606/1
f 266/606/1 622/609/1 621/608/1
f 266/606/1 623/436/1 622/609/1
f 507/610/1 623/436/1 266/606/1
f 623/436/1 507/610/1 624/437/1
f 624/437/1 507/610/1 506/611/1
f 624/437/1 506/611/1 625/435/1
f 506/611/1 626/612/1 625/435/1
f 627/255/1 626/612/1 506/611/1
f 626/612/1 627/255/1 628/613/1
f 629/614/1 628/613/1 627/255/1
f 627/255/1 630/615/1 629/614/1
f 627/255/1 631/616/1 630/615/1
f 627/255/1 632/252/1 631/616/1
f 632/252/1 633/617/1 631/616/1
f 634/253/1 633/617/1 632/252/1
f 634/253/1 635/618/1 633/617/1
f 355/619/1 636/620/1 637/621/1
f 637/621/1 230/622/1 355/619/1
f 355/619/1 230/622/1 234/623/1
f 355/619/1 234/623/1 517/624/1
f 517/624/1 519/541/1 355/619/1
f 354/540/1 355/619/1 519/541/1
f 638/625/1 639/268/1 640/626/1
f 639/268/1 638/625/1 641/271/1
f 642/627/1 641/271/1 638/625/1
f 643/264/1 640/626/1 639/268/1
f 643/264/1 644/628/1 640/626/1
f 644/628/1 643/264/1 645/266/1
f 646/629/97 647/630/97 648/631/98
f 648/631/98 649/632/98 646/629/97
f 647/630/97 646/629/97 650/633/99
f 650/633/99 651/634/99 647/630/97
f 651/634/99 650/633/99 652/635/100
f 652/635/100 653/636/100 651/634/99
f 605/590/97 590/592/98 352/637/98
f 605/590/97 352/637/98 349/638/97
f 351/639/99 605/590/97 349/638/97
f 605/590/97 351/639/99 603/585/99
f 350/640/100 603/585/99 351/639/99
f 393/588/100 603/585/99 350/640/100
f 654/641/99 588/586/100 655/642/100
f 588/586/100 654/641/99 604/587/99
f 656/643/97 604/587/99 654/641/99
f 604/587/99 656/643/97 606/591/97
f 657/644/98 606/591/97 656/643/97
f 606/591/97 657/644/98 589/589/98
f 420/645/1 469/646/1 468/647/1
f 420/645/1 468/647/1 467/648/1
f 420/645/1 467/648/1 252/649/1
f 420/645/1 252/649/1 250/650/1
f 250/650/1 251/651/1 420/645/1
f 251/651/1 394/652/1 420/645/1
f 394/652/1 251/651/1 472/653/1
f 472/653/1 471/654/1 394/652/1
f 470/655/1 394/652/1 471/654/1
f 470/655/1 706/656/1 700/657/1
f 658/658/1 659/659/1 660/660/1
f 661/661/1 660/660/1 659/659/1
f 662/662/6 663/663/6 664/664/6
f 663/663/6 665/665/6 664/664/6
f 664/664/6 665/665/6 666/666/6
f 665/665/6 667/667/6 666/666/6
f 405/383/21 407/385/21 426/403/21 428/405/21
f 668/668/6 669/669/6 670/670/6
f 671/671/6 669/669/6 668/668/6
f 672/672/6 670/670/6 669/669/6
f 662/662/6 669/669/6 671/671/6
f 670/670/6 672/672/6 673/673/6
f 662/662/6 671/671/6 674/674/6
f 672/672/6 675/675/6 673/673/6
f 662/662/6 674/674/6 676/676/6
f 675/675/6 672/672/6 677/389/6
f 663/663/6 662/662/6 676/676/6
f 675/675/6 677/389/6 678/677/6
f 676/676/6 679/678/6 663/663/6
f 680/679/6 678/677/6 677/389/6
f 679/678/6 681/680/6 663/663/6
f 678/677/6 680/679/6 682/681/6
f 683/682/6 663/663/6 681/680/6
f 684/683/6 682/681/6 680/679/6
f 683/682/6 681/680/6 685/684/6
f 686/685/6 683/682/6 685/684/6
f 686/685/6 687/686/6 683/682/6
f 687/686/6 686/685/6 688/687/6
f 689/688/6 687/686/6 688/687/6
f 687/686/6 689/688/6 690/409/6
f 691/689/6 690/409/6 689/688/6
f 691/689/6 692/690/6 690/409/6
f 692/690/6 691/689/6 693/691/6
f 692/690/6 693/691/6 694/692/6
f 413/390/101 414/391/101 503/488/101 504/489/101
f 695/433/6 696/414/6 697/413/6
f 696/414/6 695/433/6 698/432/6
f 701/693/65 704/446/65 76/445/32 469/444/32
f 705/451/66 706/694/66 470/448/29
f 702/695/6 703/696/6 66/67/6
f 708/697/1 701/698/1 469/646/1
f 719/699/102 728/700/102 735/701/103 726/702/103
f 726/702/103 735/701/103 734/703/64 725/704/64
f 725/704/64 734/703/64 733/705/104 724/706/104
f 724/706/104 733/705/104 732/707/63 723/708/63
f 723/708/63 732/707/63 731/709/105 722/710/105
f 722/710/105 731/709/105 730/711/31 721/712/31
f 721/712/31 730/711/31 729/713/106 720/714/106
f 720/714/106 729/713/106 727/715/107 718/716/107
f 718/716/107 710/717/107 717/718/106 720/714/106
f 720/714/106 717/718/106 716/719/31 721/712/31
f 721/712/31 716/719/31 715/720/105 722/710/105
f 722/710/105 715/720/105 714/721/63 723/708/63
f 723/708/63 714/721/63 713/722/104 724/706/104
f 724/706/104 713/722/104 712/723/64 725/704/64
f 725/704/64 712/723/64 711/724/103 726/702/103
f 726/702/103 711/724/103 709/725/102 719/699/102
f 719/699/102 709/725/102 67/66/32 394/652/32
f 66/67/6 67/66/6 709/725/6 711/724/6 712/723/6 713/722/6 714/721/6 715/720/6 716/719/6 717/718/6 710/717/6 702/695/6
f 702/695/108 710/717/107 718/716/107 727/715/107 700/657/108 706/694/108 705/451/108 703/696/108
f 728/700/102 719/699/102 394/652/32
f 394/652/1 470/655/1 700/657/1 727/715/1 729/713/1 730/711/1 731/709/1 732/707/1 733/705/1 734/703/1 735/701/1 728/700/1
f 737/726/109 746/727/109 753/728/110 744/729/110
f 744/729/110 753/728/110 752/730/67 743/731/67
f 743/731/67 752/730/67 751/732/111 742/733/111
f 742/733/111 751/732/111 750/734/68 741/735/68
f 741/735/68 750/734/68 749/736/112 740/737/112
f 740/737/112 749/736/112 748/738/30 739/739/30
f 739/739/30 748/738/30 747/740/113 738/741/113
f 738/741/113 747/740/113 745/742/114 736/743/114
f 736/743/114 755/744/114 762/745/113 738/741/113
f 738/741/113 762/745/113 761/746/30 739/739/30
f 739/739/30 761/746/30 760/747/112 740/737/112
f 740/737/112 760/747/112 759/748/68 741/735/68
f 741/735/68 759/748/68 758/749/111 742/733/111
f 742/733/111 758/749/111 757/750/67 743/731/67
f 743/731/67 757/750/67 756/751/110 744/729/110
f 744/729/110 756/751/110 754/752/109 737/726/109
f 707/78/115 699/447/115 704/446/115 701/698/115 708/697/115 755/744/114 736/743/114 745/742/114
f 72/72/29 737/726/109 754/752/109 420/753/29
f 72/72/29 746/727/109 737/726/109
f 72/72/6 76/76/6 707/78/6 745/742/6 747/740/6 748/738/6 749/736/6 750/734/6 751/732/6 752/730/6 753/728/6 746/727/6
f 469/646/1 420/645/1 754/754/1 756/755/1 757/756/1 758/757/1 759/758/1 760/759/1 761/760/1 762/761/1 755/762/1 708/697/1
f 385/370/21 147/150/21 417/370/21
f 417/370/21 419/397/21 385/370/21
f 53/53/116 52/337/38 352/338/39
f 352/338/39 590/592/116 53/53/116
f 154/473/28 53/53/116 590/592/116
f 153/472/28 152/158/28 53/157/116 154/473/28
f 48/334/37 393/588/117 350/640/37
f 48/334/37 47/47/117 393/588/117
f 393/588/117 47/47/117 392/551/28
f 47/47/117 151/156/28 384/369/28 392/551/28
