# Blender 5.1.2
# www.blender.org
mtllib pf无框.mtl
o 立方体.001
v -0.065000 -0.069150 0.113063
v -0.065000 -0.049150 0.113063
v -0.058514 -0.068152 -0.091937
v -0.058514 -0.050148 -0.091937
v 0.065000 -0.069150 0.113063
v 0.065000 -0.049150 0.113063
v 0.058514 -0.068152 -0.091937
v 0.058514 -0.050148 -0.091937
vn -0.9995 -0.0000 -0.0316
vn -0.0000 -0.0000 -1.0000
vn 0.9995 -0.0000 -0.0316
vn -0.0000 -0.0000 1.0000
vn -0.0000 -1.0000 -0.0049
vn -0.0000 1.0000 -0.0049
vt 0.375000 0.000000
vt 0.625000 0.000000
vt 0.625000 0.250000
vt 0.375000 0.250000
vt 0.625000 0.500000
vt 0.375000 0.500000
vt 0.625000 0.750000
vt 0.375000 0.750000
vt 0.625000 1.000000
vt 0.375000 1.000000
vt 0.125000 0.500000
vt 0.125000 0.750000
vt 0.875000 0.500000
vt 0.875000 0.750000
s 1
f 1/1/1 2/2/1 4/3/1 3/4/1
f 3/4/2 4/3/2 8/5/2 7/6/2
f 7/6/3 8/5/3 6/7/3 5/8/3
f 5/8/4 6/7/4 2/9/4 1/10/4
f 3/11/5 7/6/5 5/8/5 1/12/5
f 8/5/6 4/13/6 2/14/6 6/7/6
o 105810456108218
v 0.077220 0.046023 0.108321
v 0.077220 -0.030950 0.054786
v 0.077220 0.045639 0.051405
v 0.077220 -0.029009 0.120934
v 0.073440 -0.037283 0.055066
v 0.073440 -0.035213 0.121976
v 0.062469 -0.042996 0.055317
v 0.062469 -0.040810 0.122918
v 0.000016 -0.064569 0.055690
v 0.023852 -0.061229 0.124143
v 0.000016 -0.062211 0.124309
v 0.023852 -0.063566 0.055646
v 0.045382 -0.058377 0.123664
v 0.045382 -0.060655 0.055518
v -0.023852 -0.061229 0.124143
v -0.023852 -0.063566 0.055646
v 0.000016 -0.064569 0.055690
v 0.000016 -0.062211 0.124309
v -0.045382 -0.058377 0.123664
v -0.045382 -0.060655 0.055518
v -0.077220 -0.030950 0.054786
v -0.077220 0.046023 0.108321
v -0.077220 0.045639 0.051405
v -0.077220 -0.029009 0.120934
v -0.073440 -0.037283 0.055066
v -0.073440 -0.035213 0.121976
v -0.062469 -0.042996 0.055317
v -0.062469 -0.040810 0.122918
v -0.045382 -0.047529 0.055518
v -0.045382 -0.045252 0.123664
v 0.045382 -0.047529 0.055518
v 0.062469 -0.040810 0.122918
v 0.045382 -0.045252 0.123664
v 0.062469 -0.042996 0.055317
v -0.045382 -0.060655 0.055518
v -0.045382 -0.058377 0.123664
v -0.045382 -0.047529 0.055518
v -0.045382 -0.045252 0.123664
v 0.045382 -0.058377 0.123664
v 0.045382 -0.047529 0.055518
v 0.045382 -0.045252 0.123664
v 0.045382 -0.060655 0.055518
v 0.023852 -0.061229 0.124143
v 0.045382 -0.058377 0.123664
v 0.023852 -0.048103 0.124143
v 0.045382 -0.045252 0.123664
v 0.044638 -0.041474 0.123538
v -0.044638 -0.041474 0.123538
v -0.023852 -0.048103 0.124143
v -0.023516 -0.044268 0.124013
v 0.000016 -0.049086 0.124309
v -0.045382 -0.045252 0.123664
v -0.061098 -0.037212 0.122801
v -0.045382 -0.058377 0.123664
v -0.023852 -0.061229 0.124143
v 0.000016 -0.062211 0.124309
v 0.023852 -0.048103 0.124143
v 0.044638 -0.041474 0.123538
v 0.023516 -0.044268 0.124013
v 0.000016 -0.049086 0.124309
v 0.000016 -0.045236 0.124176
v 0.023852 -0.061229 0.124143
v 0.000016 -0.062211 0.124309
v 0.045382 -0.045252 0.123664
v 0.061098 -0.037212 0.122801
v 0.062469 -0.040810 0.122918
v -0.045382 -0.045252 0.123664
v -0.061098 -0.037212 0.122801
v -0.062469 -0.040810 0.122918
v -0.070852 -0.032362 0.121888
v -0.073440 -0.035213 0.121976
v -0.023516 -0.044268 0.124013
v 0.000016 -0.049086 0.124309
v 0.000016 -0.045236 0.124176
v 0.077220 0.045639 0.051405
v 0.077220 -0.030950 0.054786
v 0.073535 0.044517 0.051412
v 0.073506 -0.029930 0.054756
v 0.070801 -0.034478 0.054979
v 0.073440 -0.037283 0.055066
v 0.062469 -0.042996 0.055317
v 0.061085 -0.039403 0.055202
v -0.077220 0.045639 0.051405
v -0.073535 0.044517 0.051412
v -0.077220 -0.030950 0.054786
v -0.073506 -0.029930 0.054756
v -0.077220 0.046023 0.108321
v -0.073533 -0.027896 0.120901
v -0.073499 0.045028 0.108326
v -0.077220 -0.029009 0.120934
v -0.070852 -0.032362 0.121888
v -0.073440 -0.035213 0.121976
v -0.044634 -0.043753 0.055392
v -0.023852 -0.050440 0.055646
v -0.045382 -0.047529 0.055518
v -0.023515 -0.046605 0.055516
v 0.000016 -0.051443 0.055690
v -0.061085 -0.039403 0.055202
v -0.062469 -0.042996 0.055317
v -0.070801 -0.034478 0.054979
v -0.073440 -0.037283 0.055066
v -0.077220 -0.030950 0.054786
v -0.073506 -0.029930 0.054756
v 0.044634 -0.043753 0.055392
v 0.023852 -0.050440 0.055646
v 0.023514 -0.046605 0.055516
v 0.000016 -0.051443 0.055690
v 0.045382 -0.047529 0.055518
v 0.061085 -0.039403 0.055202
v 0.062469 -0.042996 0.055317
v 0.073440 -0.035213 0.121976
v 0.077220 -0.029009 0.120934
v 0.070852 -0.032362 0.121888
v 0.062469 -0.040810 0.122918
v 0.061098 -0.037212 0.122801
v 0.073533 -0.027896 0.120901
v 0.077220 0.046023 0.108321
v 0.073499 0.045028 0.108326
v 0.000016 -0.064569 0.055690
v -0.023852 -0.063566 0.055646
v 0.000016 -0.051443 0.055690
v -0.023852 -0.050440 0.055646
v -0.045382 -0.060655 0.055518
v -0.045382 -0.047529 0.055518
v -0.023515 -0.046605 0.055516
v 0.000016 -0.047593 0.055559
v -0.044634 -0.043753 0.055392
v -0.061085 -0.039403 0.055202
v 0.023852 -0.050440 0.055646
v 0.045382 -0.060655 0.055518
v 0.023852 -0.063566 0.055646
v 0.045382 -0.047529 0.055518
v 0.000016 -0.051443 0.055690
v 0.000016 -0.064569 0.055690
v 0.023514 -0.046605 0.055516
v 0.000016 -0.047593 0.055559
v 0.023516 -0.044268 0.124013
v 0.000016 -0.047593 0.055559
v 0.000016 -0.045236 0.124176
v 0.023514 -0.046605 0.055516
v 0.044638 -0.041474 0.123538
v 0.044634 -0.043753 0.055392
v 0.061098 -0.037212 0.122801
v 0.061085 -0.039403 0.055202
v -0.073499 0.045028 0.108326
v -0.073506 -0.029930 0.054756
v -0.073535 0.044517 0.051412
v -0.073533 -0.027896 0.120901
v -0.070801 -0.034478 0.054979
v -0.070852 -0.032362 0.121888
v -0.061085 -0.039403 0.055202
v -0.061098 -0.037212 0.122801
v -0.044634 -0.043753 0.055392
v -0.044638 -0.041474 0.123538
v -0.023515 -0.046605 0.055516
v -0.023516 -0.044268 0.124013
v 0.000016 -0.047593 0.055559
v 0.000016 -0.045236 0.124176
v 0.073499 0.045028 0.108326
v 0.073535 0.044517 0.051412
v 0.073506 -0.029930 0.054756
v 0.073533 -0.027896 0.120901
v 0.070801 -0.034478 0.054979
v 0.070852 -0.032362 0.121888
v 0.061085 -0.039403 0.055202
v 0.061098 -0.037212 0.122801
vn 0.9539 0.3000 -0.0048
vn 0.9641 -0.2653 0.0083
vn 0.9566 0.2915 -0.0015
vn 0.9573 -0.2888 0.0083
vn 0.6851 -0.7281 0.0229
vn 0.6719 -0.7403 0.0230
vn 0.3592 -0.9328 0.0298
vn 0.3563 -0.9339 0.0298
vn 0.0005 -0.9994 0.0347
vn 0.0868 -0.9956 0.0339
vn 0.0877 -0.9956 0.0337
vn 0.1332 -0.9905 0.0337
vn 0.1335 -0.9905 0.0337
vn -0.0872 -0.9956 0.0338
vn -0.0880 -0.9956 0.0337
vn -0.1332 -0.9905 0.0337
vn -0.1335 -0.9905 0.0337
vn -0.9641 -0.2653 0.0083
vn -0.9539 0.3000 -0.0047
vn -0.2633 0.9644 -0.0239
vn -0.9573 -0.2888 0.0083
vn -0.6851 -0.7281 0.0229
vn -0.6719 -0.7403 0.0230
vn -0.3592 -0.9328 0.0298
vn -0.3562 -0.9339 0.0298
vn -0.2546 -0.9665 0.0317
vn -0.2544 -0.9666 0.0318
vn 0.2546 -0.9665 0.0317
vn 0.3562 -0.9339 0.0298
vn 0.2545 -0.9666 0.0317
vn 0.3591 -0.9328 0.0298
vn -1.0000 0.0005 0.0005
vn 1.0000 0.0005 0.0005
vn 0.0142 -0.0005 0.9999
vn 0.0220 -0.0004 0.9998
vn 0.0132 0.0171 0.9998
vn 0.0239 0.0269 0.9994
vn 0.0249 0.0396 0.9989
vn -0.0250 0.0395 0.9989
vn -0.0134 0.0170 0.9998
vn -0.0112 0.0357 0.9993
vn 0.0005 0.0171 0.9999
vn -0.0240 0.0268 0.9994
vn -0.0445 0.0542 0.9975
vn -0.0220 -0.0004 0.9998
vn -0.0142 -0.0000 0.9999
vn 0.0005 -0.0005 1.0000
vn 0.0113 0.0356 0.9993
vn 0.0005 0.0347 0.9994
vn 0.0240 0.0269 0.9994
vn 0.0445 0.0542 0.9975
vn -0.0240 0.0269 0.9994
vn -0.0640 0.1050 0.9924
vn -0.0640 0.1051 0.9924
vn 0.0122 -0.0406 -0.9991
vn -0.0015 -0.0435 -0.9991
vn 0.0122 -0.0415 -0.9991
vn -0.0061 -0.0381 -0.9993
vn -0.0064 -0.0385 -0.9992
vn -0.0034 -0.0347 -0.9994
vn 0.1799 0.5789 -0.7953
vn 0.0015 -0.0435 -0.9991
vn 0.2232 0.7289 -0.6472
vn 0.2105 0.7650 0.6087
vn -0.0347 0.1558 0.9872
vn 0.1870 0.7027 0.6865
vn -0.0357 0.1558 0.9871
vn 0.0023 -0.0337 -0.9994
vn 0.0024 -0.0161 -0.9999
vn 0.0035 -0.0230 -0.9997
vn 0.0004 -0.0339 -0.9994
vn -0.0005 -0.0161 -0.9999
vn 0.0035 -0.0347 -0.9994
vn 0.0034 -0.0229 -0.9997
vn 0.0061 -0.0381 -0.9993
vn 0.0064 -0.0385 -0.9992
vn 0.0014 -0.0435 -0.9991
vn -0.0020 -0.0338 -0.9994
vn -0.0024 -0.0161 -0.9999
vn -0.0009 -0.0340 -0.9994
vn -0.0034 -0.0230 -0.9997
vn -0.0034 -0.0346 -0.9994
vn 0.0640 0.1051 0.9924
vn 0.0357 0.1558 0.9871
vn 0.0640 0.1050 0.9924
vn 0.0445 0.0543 0.9975
vn 0.0347 0.1558 0.9872
vn -0.2106 0.7649 0.6087
vn -0.1887 0.6904 0.6984
vn -0.0004 0.0005 -1.0000
vn 0.0038 -0.0000 -1.0000
vn 0.0063 0.0004 -1.0000
vn 0.0034 -0.0230 -0.9997
vn 0.0004 -0.0340 -0.9994
vn -0.0004 -0.0337 -0.9994
vn 0.0022 -0.0338 -0.9994
vn 0.0008 -0.0338 -0.9994
vn 0.0033 -0.0345 -0.9994
vn 0.0026 -0.0339 -0.9994
vn -0.0063 0.0004 -1.0000
vn -0.0038 -0.0000 -1.0000
vn -0.0004 -0.0340 -0.9994
vn -0.0004 -0.0161 -0.9999
vn -0.0873 0.9956 -0.0337
vn -0.0005 0.9994 -0.0347
vn -0.0005 0.9994 -0.0346
vn -0.0879 0.9956 -0.0337
vn -0.1930 0.9807 -0.0327
vn -0.1941 0.9804 -0.0327
vn -0.3501 0.9362 -0.0308
vn -0.3542 0.9347 -0.0299
vn 0.9510 0.3091 0.0115
vn 0.9649 0.2623 -0.0082
vn 0.9651 -0.2618 0.0012
vn 0.9568 0.2906 -0.0090
vn 0.6831 0.7300 -0.0230
vn 0.6656 0.7459 -0.0230
vn 0.3544 0.9346 -0.0298
vn 0.3501 0.9362 -0.0308
vn 0.1940 0.9805 -0.0327
vn 0.1930 0.9806 -0.0327
vn 0.0879 0.9956 -0.0337
vn 0.0873 0.9956 -0.0337
vn -0.0005 0.9994 -0.0342
vn -0.8155 0.5787 -0.0054
vn -0.9651 -0.2618 0.0012
vn -0.9650 0.2622 -0.0079
vn -0.9568 0.2906 -0.0093
vn -0.6832 0.7299 -0.0229
vn -0.6657 0.7458 -0.0230
vn -0.3543 0.9347 -0.0298
vn -0.3502 0.9362 -0.0308
vn -0.9997 -0.0021 -0.0248
vn -0.2934 0.9560 -0.0046
vn 0.2913 -0.9566 0.0065
vn 0.2929 -0.9561 0.0042
vt 0.584207 0.250000
vt 0.419162 0.000000
vt 0.584207 0.000000
vt 0.419162 0.250000
vt 0.405515 0.000000
vt 0.405515 0.250000
vt 0.393204 0.000000
vt 0.393204 0.250000
vt 0.249975 0.750000
vt 0.211390 0.500478
vt 0.249975 0.500000
vt 0.211390 0.750036
vt 0.176537 0.501866
vt 0.176537 0.750139
vt 0.318127 0.471522
vt 0.318127 0.778821
vt 0.343453 0.484065
vt 0.343453 0.767272
vt 0.419162 0.750000
vt 0.584207 0.500000
vt 0.584207 0.750000
vt 0.419162 0.500000
vt 0.405515 0.752040
vt 0.405515 0.497960
vt 0.393204 0.757959
vt 0.393204 0.492041
vt 0.125000 0.504028
vt 0.125000 0.750000
vt 0.000000 0.000000
s 1
f 9/15/7 10/16/8 11/17/9
f 10/16/8 9/15/7 12/18/10
f 12/18/10 13/19/11 10/16/8
f 13/19/11 12/18/10 14/20/12
f 14/20/12 15/21/13 13/19/11
f 15/21/13 14/20/12 16/22/14
f 17/23/15 18/24/16 19/25/15
f 18/24/16 17/23/15 20/26/17
f 20/26/17 21/27/18 18/24/16
f 21/27/18 20/26/17 22/28/19
f 23/29/20 24/30/21 25/23/15
f 25/23/15 26/25/15 23/29/20
f 24/30/21 23/29/20 27/31/22
f 27/31/22 28/32/23 24/30/21
f 29/33/24 30/34/25 31/35/26
f 30/34/25 29/33/24 32/36/27
f 32/36/27 29/33/24 33/37/28
f 32/36/27 33/37/28 34/38/29
f 34/38/29 33/37/28 35/39/30
f 35/39/30 36/40/31 34/38/29
f 36/40/31 35/39/30 37/32/32
f 37/32/32 38/31/33 36/40/31
f 39/28/34 40/41/35 41/27/36
f 40/41/35 39/28/34 42/42/37
f 43/32/38 44/31/38 45/32/38
f 46/31/38 45/32/38 44/31/38
f 47/27/39 48/28/39 49/27/39
f 48/28/39 47/27/39 50/28/39
f 51/24/40 52/27/41 53/24/42
f 54/27/43 53/24/42 52/27/41
f 55/27/44 53/24/42 54/27/43
f 56/31/45 57/29/46 58/29/47
f 59/25/48 58/29/47 57/29/46
f 57/29/46 56/31/45 60/31/49
f 61/40/50 60/31/49 56/31/45
f 62/31/51 57/29/46 60/31/49
f 57/29/46 62/31/51 63/29/52
f 63/29/52 59/25/48 57/29/46
f 59/25/48 63/29/52 64/25/53
f 65/24/42 66/27/44 67/24/54
f 67/24/54 68/25/48 65/24/42
f 68/25/48 67/24/54 69/25/55
f 65/24/42 68/25/48 70/24/40
f 71/25/53 70/24/40 68/25/48
f 72/27/56 73/41/57 66/27/44
f 73/41/57 72/27/56 74/41/57
f 75/31/58 76/40/50 77/40/50
f 78/38/59 77/40/50 76/40/50
f 77/40/50 78/38/59 79/38/60
f 80/29/47 81/25/48 82/25/55
f 83/17/61 84/16/62 85/17/63
f 85/17/63 84/16/62 86/16/62
f 84/16/62 87/19/64 86/16/62
f 87/19/64 84/16/62 88/19/65
f 89/21/66 87/19/64 88/19/65
f 87/19/64 89/21/66 90/21/66
f 92/35/67 93/33/68 91/35/69
f 93/33/68 92/35/67 94/33/68
f 95/34/70 96/36/71 97/34/72
f 96/36/71 95/34/70 98/36/73
f 98/36/73 99/38/59 96/36/71
f 99/38/59 98/36/73 100/38/60
f 101/32/74 102/30/75 103/32/76
f 104/30/77 105/23/78 102/30/75
f 106/39/79 103/32/80 107/39/79
f 107/39/79 108/37/81 106/39/79
f 108/37/81 107/39/79 109/37/82
f 109/37/82 110/33/83 108/37/81
f 110/33/83 111/33/83 108/37/81
f 112/28/84 113/26/85 114/26/86
f 115/23/78 114/26/86 113/26/85
f 113/26/85 112/28/84 116/28/87
f 117/42/88 116/28/87 112/28/84
f 116/28/87 117/42/88 118/42/66
f 119/20/89 120/18/90 121/20/91
f 121/20/91 122/22/92 119/20/89
f 122/22/92 121/20/91 123/22/92
f 120/18/90 124/18/93 121/20/91
f 120/18/90 125/15/94 124/18/93
f 124/18/93 125/15/94 126/15/95
f 127/23/96 128/30/97 129/23/78
f 130/30/75 129/23/78 128/30/97
f 128/30/97 131/32/98 130/30/75
f 132/32/99 130/30/75 131/32/98
f 129/23/78 133/30/100 134/23/101
f 130/30/75 135/32/102 133/30/103
f 132/32/99 136/39/104 135/32/105
f 137/26/85 138/28/106 139/26/107
f 138/28/106 137/26/85 140/28/87
f 139/26/107 141/23/78 137/26/85
f 141/23/78 139/26/107 142/23/96
f 143/26/108 141/23/109 144/23/108
f 145/24/110 146/23/111 147/25/112
f 146/23/111 145/24/110 148/26/113
f 149/27/114 148/26/113 145/24/110
f 148/26/113 149/27/114 150/28/115
f 151/41/116 150/28/115 149/27/114
f 150/28/115 151/41/116 152/42/117
f 153/34/118 154/33/119 155/35/120
f 154/33/119 153/34/118 156/36/121
f 156/36/121 157/37/122 154/33/119
f 157/37/122 156/36/121 158/38/123
f 158/38/123 159/39/124 157/37/122
f 160/40/125 159/39/124 158/38/123
f 160/40/125 161/32/126 159/39/124
f 162/31/127 161/32/126 160/40/125
f 162/31/127 163/30/128 161/32/126
f 164/29/129 163/30/128 162/31/127
f 164/29/129 165/23/130 163/30/128
f 166/25/111 165/23/130 164/29/129
f 167/15/131 168/17/132 169/16/133
f 169/16/133 170/18/134 167/15/131
f 171/19/135 170/18/134 169/16/133
f 170/18/134 171/19/135 172/20/136
f 173/21/137 172/20/136 171/19/135
f 172/20/136 173/21/137 174/22/138
f 9/15/7 11/17/9 83/17/139 85/17/140
f 125/15/94 168/17/132 167/15/131 126/15/95
f 9/43/141 168/43/141 85/17/142 83/17/139 11/17/9 125/43/141
f 30/34/25 92/35/67 91/35/69 31/35/26
f 95/34/70 97/34/72 153/34/118 155/35/120
